solid Drawer Slide Clip
facet normal -9.517196885418082e-17 4.657378651464643e-16 -1.0
  outer loop
    vertex 22.99999999999998 27.999999999999993 1.0000000000000169
    vertex 9.517196885418082e-17 18.050000000000022 0.9999999999999999
    vertex 9.517196885418082e-17 27.999999999999993 1.0000000000000169
  endloop
endfacet
facet normal -9.517196885418082e-17 4.657378651464643e-16 -1.0
  outer loop
    vertex 9.517196885418082e-17 18.050000000000022 0.9999999999999999
    vertex 22.99999999999998 27.999999999999993 1.0000000000000169
    vertex 5.899999999999989 20.000000000000018 0.9999999999999943
  endloop
endfacet
facet normal -9.517196885418082e-17 4.657378651464643e-16 -1.0
  outer loop
    vertex 5.899999999999989 20.000000000000018 0.9999999999999943
    vertex 22.99999999999998 27.999999999999993 1.0000000000000169
    vertex 16.89999999999998 20.000000000000018 0.9999999999999943
  endloop
endfacet
facet normal -9.517196885418082e-17 4.657378651464643e-16 -1.0
  outer loop
    vertex 16.89999999999998 20.000000000000018 0.9999999999999943
    vertex 22.99999999999998 27.999999999999993 1.0000000000000169
    vertex 16.89999999999998 18.050000000000022 0.9999999999999999
  endloop
endfacet
facet normal -9.517196885418082e-17 4.657378651464643e-16 -1.0
  outer loop
    vertex 16.89999999999998 18.050000000000022 0.9999999999999999
    vertex 22.99999999999998 27.999999999999993 1.0000000000000169
    vertex 45.40000000000002 18.050000000000008 0.9999999999999887
  endloop
endfacet
facet normal -9.517196885418082e-17 4.657378651464643e-16 -1.0
  outer loop
    vertex 45.40000000000002 18.050000000000008 0.9999999999999887
    vertex 22.99999999999998 27.999999999999993 1.0000000000000169
    vertex 49.000000000000014 21.250000000000014 0.9999999999999999
  endloop
endfacet
facet normal -9.517196885418082e-17 4.657378651464643e-16 -1.0
  outer loop
    vertex 45.40000000000002 18.050000000000008 0.9999999999999887
    vertex 49.000000000000014 21.250000000000014 0.9999999999999999
    vertex 45.40000000000002 9.94999999999999 0.9999999999999887
  endloop
endfacet
facet normal -9.517196885418082e-17 4.657378651464643e-16 -1.0
  outer loop
    vertex 45.40000000000002 9.94999999999999 0.9999999999999887
    vertex 16.89999999999998 7.999999999999994 0.9999999999999943
    vertex 16.89999999999998 9.950000000000001 0.9999999999999943
  endloop
endfacet
facet normal -9.517196885418082e-17 4.657378651464643e-16 -1.0
  outer loop
    vertex 16.89999999999998 7.999999999999994 0.9999999999999943
    vertex 45.40000000000002 9.94999999999999 0.9999999999999887
    vertex 23.000000000000004 -4.657378651464642e-16 0.9999999999999999
  endloop
endfacet
facet normal -9.517196885418082e-17 4.657378651464643e-16 -1.0
  outer loop
    vertex 23.000000000000004 -4.657378651464642e-16 0.9999999999999999
    vertex 45.40000000000002 9.94999999999999 0.9999999999999887
    vertex 49.000000000000014 6.7499999999999964 0.9999999999999999
  endloop
endfacet
facet normal -9.517196885418082e-17 4.657378651464643e-16 -1.0
  outer loop
    vertex 49.000000000000014 6.7499999999999964 0.9999999999999999
    vertex 45.40000000000002 9.94999999999999 0.9999999999999887
    vertex 49.000000000000014 21.250000000000014 0.9999999999999999
  endloop
endfacet
facet normal -9.517196885418082e-17 4.657378651464643e-16 -1.0
  outer loop
    vertex 5.9 9.94999999999999 0.9999999999999943
    vertex 9.517196885418082e-17 -4.657378651464642e-16 0.9999999999999999
    vertex 9.517196885418082e-17 9.950000000000001 0.9999999999999943
  endloop
endfacet
facet normal -9.517196885418082e-17 4.657378651464643e-16 -1.0
  outer loop
    vertex 9.517196885418082e-17 -4.657378651464642e-16 0.9999999999999999
    vertex 5.9 9.94999999999999 0.9999999999999943
    vertex 5.9 8.000000000000005 0.9999999999999943
  endloop
endfacet
facet normal -9.517196885418082e-17 4.657378651464643e-16 -1.0
  outer loop
    vertex 9.517196885418082e-17 -4.657378651464642e-16 0.9999999999999999
    vertex 5.9 8.000000000000005 0.9999999999999943
    vertex 23.000000000000004 -4.657378651464642e-16 0.9999999999999999
  endloop
endfacet
facet normal -9.517196885418082e-17 4.657378651464643e-16 -1.0
  outer loop
    vertex 23.000000000000004 -4.657378651464642e-16 0.9999999999999999
    vertex 5.9 8.000000000000005 0.9999999999999943
    vertex 16.89999999999998 7.999999999999994 0.9999999999999943
  endloop
endfacet
facet normal -9.517196885418082e-17 4.657378651464643e-16 -1.0
  outer loop
    vertex 5.899999999999989 18.050000000000022 0.9999999999999999
    vertex 9.517196885418082e-17 18.050000000000022 0.9999999999999999
    vertex 5.899999999999989 20.000000000000018 0.9999999999999943
  endloop
endfacet
facet normal 5.127211786450737e-16 1.0 1.8193332145470307e-15
  outer loop
    vertex 5.9 7.999999999999994 3.1
    vertex 16.89999999999998 7.999999999999994 0.9999999999999943
    vertex 5.9 8.000000000000005 0.9999999999999943
  endloop
endfacet
facet normal 5.127211786450737e-16 1.0 1.8193332145470307e-15
  outer loop
    vertex 16.89999999999998 7.999999999999994 0.9999999999999943
    vertex 5.9 7.999999999999994 3.1
    vertex 16.89999999999998 7.999999999999994 3.0999999999999943
  endloop
endfacet
facet normal -1.0 0.0 0.0
  outer loop
    vertex 16.89999999999998 8.499999999999993 3.0999999999999885
    vertex 16.89999999999998 7.999999999999994 0.9999999999999943
    vertex 16.89999999999998 7.999999999999994 3.0999999999999943
  endloop
endfacet
facet normal -1.0 0.0 0.0
  outer loop
    vertex 16.89999999999998 7.999999999999994 0.9999999999999943
    vertex 16.89999999999998 8.499999999999993 3.0999999999999885
    vertex 16.89999999999998 9.950000000000001 0.9999999999999943
  endloop
endfacet
facet normal -1.0 0.0 0.0
  outer loop
    vertex 16.89999999999998 9.950000000000001 0.9999999999999943
    vertex 16.89999999999998 8.499999999999993 3.0999999999999885
    vertex 16.89999999999998 8.500000000000004 6.05
  endloop
endfacet
facet normal -1.0 0.0 0.0
  outer loop
    vertex 16.89999999999998 9.950000000000001 0.9999999999999943
    vertex 16.89999999999998 8.500000000000004 6.05
    vertex 16.89999999999998 9.950000000000001 6.05
  endloop
endfacet
facet normal 0.0 -1.0 0.0
  outer loop
    vertex 16.89999999999998 20.000000000000018 3.100000000000017
    vertex 5.899999999999989 20.000000000000018 0.9999999999999943
    vertex 16.89999999999998 20.000000000000018 0.9999999999999943
  endloop
endfacet
facet normal 0.0 -1.0 0.0
  outer loop
    vertex 5.899999999999989 20.000000000000018 0.9999999999999943
    vertex 16.89999999999998 20.000000000000018 3.100000000000017
    vertex 5.899999999999989 20.000000000000018 3.100000000000017
  endloop
endfacet
facet normal -0.0 1.0 -0.0
  outer loop
    vertex 0.0 27.999999999999993 3.1000000000000227
    vertex 22.99999999999998 27.999999999999993 1.0000000000000169
    vertex 9.517196885418082e-17 27.999999999999993 1.0000000000000169
  endloop
endfacet
facet normal -0.0 1.0 -0.0
  outer loop
    vertex 22.99999999999998 27.999999999999993 1.0000000000000169
    vertex 0.0 27.999999999999993 3.1000000000000227
    vertex 22.99999999999998 27.999999999999993 3.1000000000000227
  endloop
endfacet
facet normal 0.2512851334168209 0.9679131064944264 -1.7016764367122367e-15
  outer loop
    vertex 22.99999999999998 27.999999999999993 1.0000000000000169
    vertex 49.000000000000014 21.250000000000025 3.1
    vertex 49.000000000000014 21.250000000000014 0.9999999999999999
  endloop
endfacet
facet normal 0.2512851334168209 0.9679131064944264 -1.7016764367122367e-15
  outer loop
    vertex 49.000000000000014 21.250000000000025 3.1
    vertex 22.99999999999998 27.999999999999993 1.0000000000000169
    vertex 22.99999999999998 27.999999999999993 3.1000000000000227
  endloop
endfacet
facet normal 1.0 -0.0 -0.0
  outer loop
    vertex 49.000000000000014 21.250000000000014 0.9999999999999999
    vertex 49.000000000000014 6.7499999999999964 3.1000000000000054
    vertex 49.000000000000014 6.7499999999999964 0.9999999999999999
  endloop
endfacet
facet normal 1.0 -0.0 -0.0
  outer loop
    vertex 49.000000000000014 6.7499999999999964 3.1000000000000054
    vertex 49.000000000000014 21.250000000000014 0.9999999999999999
    vertex 49.000000000000014 12.749999999999993 3.0999999999999885
  endloop
endfacet
facet normal 1.0 -0.0 -0.0
  outer loop
    vertex 49.000000000000014 12.749999999999993 3.0999999999999885
    vertex 49.000000000000014 21.250000000000014 0.9999999999999999
    vertex 49.000000000000014 15.250000000000018 3.1000000000000005
  endloop
endfacet
facet normal 1.0 -0.0 -0.0
  outer loop
    vertex 49.000000000000014 15.250000000000018 3.1000000000000005
    vertex 49.000000000000014 21.250000000000014 0.9999999999999999
    vertex 49.000000000000014 21.250000000000025 3.1
  endloop
endfacet
facet normal 0.25128513341682174 -0.9679131064944262 1.801392508162841e-15
  outer loop
    vertex 49.000000000000014 6.7499999999999964 3.1000000000000054
    vertex 23.000000000000004 -4.657378651464642e-16 0.9999999999999999
    vertex 49.000000000000014 6.7499999999999964 0.9999999999999999
  endloop
endfacet
facet normal 0.25128513341682174 -0.9679131064944262 1.801392508162841e-15
  outer loop
    vertex 23.000000000000004 -4.657378651464642e-16 0.9999999999999999
    vertex 49.000000000000014 6.7499999999999964 3.1000000000000054
    vertex 23.000000000000004 1.127986593019159e-14 3.099999999999983
  endloop
endfacet
facet normal 0.0 -1.0 3.638666429094081e-15
  outer loop
    vertex 23.000000000000004 1.127986593019159e-14 3.099999999999983
    vertex 9.517196885418082e-17 -4.657378651464642e-16 0.9999999999999999
    vertex 23.000000000000004 -4.657378651464642e-16 0.9999999999999999
  endloop
endfacet
facet normal 0.0 -1.0 3.638666429094081e-15
  outer loop
    vertex 9.517196885418082e-17 -4.657378651464642e-16 0.9999999999999999
    vertex 23.000000000000004 1.127986593019159e-14 3.099999999999983
    vertex 0.0 1.127986593019159e-14 3.099999999999983
  endloop
endfacet
facet normal -1.0 6.605751237304906e-17 -3.554669573262595e-16
  outer loop
    vertex 7.525924274835584e-17 19.499999999999996 16.8
    vertex 0.0 9.950000000000001 3.100000000000011
    vertex -1.1330850146896371e-14 8.500000000000004 16.79999999999999
  endloop
endfacet
facet normal -1.0 6.605751237304906e-17 -3.554669573262595e-16
  outer loop
    vertex 0.0 9.950000000000001 3.100000000000011
    vertex 7.525924274835584e-17 19.499999999999996 16.8
    vertex 0.0 18.050000000000008 3.099999999999983
  endloop
endfacet
facet normal -1.0 6.605751237304906e-17 -3.554669573262595e-16
  outer loop
    vertex 0.0 18.050000000000008 3.099999999999983
    vertex 7.525924274835584e-17 19.499999999999996 16.8
    vertex 9.517196885418082e-17 18.050000000000022 0.9999999999999999
  endloop
endfacet
facet normal -1.0 6.605751237304906e-17 -3.554669573262595e-16
  outer loop
    vertex 9.517196885418082e-17 18.050000000000022 0.9999999999999999
    vertex 7.525924274835584e-17 19.499999999999996 16.8
    vertex 7.525924274835584e-17 19.500000000000018 3.1000000000000107
  endloop
endfacet
facet normal -1.0 6.605751237304906e-17 -3.554669573262595e-16
  outer loop
    vertex 9.517196885418082e-17 18.050000000000022 0.9999999999999999
    vertex 7.525924274835584e-17 19.500000000000018 3.1000000000000107
    vertex 9.517196885418082e-17 27.999999999999993 1.0000000000000169
  endloop
endfacet
facet normal -1.0 6.605751237304906e-17 -3.554669573262595e-16
  outer loop
    vertex 9.517196885418082e-17 27.999999999999993 1.0000000000000169
    vertex 7.525924274835584e-17 19.500000000000018 3.1000000000000107
    vertex 0.0 27.999999999999993 3.1000000000000227
  endloop
endfacet
facet normal -1.0 6.605751237304906e-17 -3.554669573262595e-16
  outer loop
    vertex 0.0 1.127986593019159e-14 3.099999999999983
    vertex 9.517196885418082e-17 9.950000000000001 0.9999999999999943
    vertex 9.517196885418082e-17 -4.657378651464642e-16 0.9999999999999999
  endloop
endfacet
facet normal -1.0 6.605751237304906e-17 -3.554669573262595e-16
  outer loop
    vertex 9.517196885418082e-17 9.950000000000001 0.9999999999999943
    vertex 0.0 1.127986593019159e-14 3.099999999999983
    vertex -5.098421670478038e-17 8.499999999999993 3.099999999999977
  endloop
endfacet
facet normal -1.0 6.605751237304906e-17 -3.554669573262595e-16
  outer loop
    vertex 9.517196885418082e-17 9.950000000000001 0.9999999999999943
    vertex -5.098421670478038e-17 8.499999999999993 3.099999999999977
    vertex -1.1330850146896371e-14 8.500000000000004 16.79999999999999
  endloop
endfacet
facet normal -1.0 6.605751237304906e-17 -3.554669573262595e-16
  outer loop
    vertex 9.517196885418082e-17 9.950000000000001 0.9999999999999943
    vertex -1.1330850146896371e-14 8.500000000000004 16.79999999999999
    vertex 0.0 9.950000000000001 3.100000000000011
  endloop
endfacet
facet normal 2.5066368733759123e-16 -5.127211786450728e-16 1.0
  outer loop
    vertex -1.1330850146896371e-14 8.500000000000004 16.79999999999999
    vertex 9.299999999999994 10.7 16.79999999999999
    vertex 7.525924274835584e-17 19.499999999999996 16.8
  endloop
endfacet
facet normal 2.5066368733759123e-16 -5.127211786450728e-16 1.0
  outer loop
    vertex 9.299999999999994 10.7 16.79999999999999
    vertex -1.1330850146896371e-14 8.500000000000004 16.79999999999999
    vertex 22.499999999999982 8.500000000000016 16.79999999999999
  endloop
endfacet
facet normal 2.5066368733759123e-16 -5.127211786450728e-16 1.0
  outer loop
    vertex 9.299999999999994 10.7 16.79999999999999
    vertex 22.499999999999982 8.500000000000016 16.79999999999999
    vertex 13.599999999999987 10.7 16.79999999999999
  endloop
endfacet
facet normal 2.5066368733759123e-16 -5.127211786450728e-16 1.0
  outer loop
    vertex 13.599999999999987 10.7 16.79999999999999
    vertex 22.499999999999982 8.500000000000016 16.79999999999999
    vertex 13.599999999999987 17.299999999999986 16.799999999999997
  endloop
endfacet
facet normal 2.5066368733759123e-16 -5.127211786450728e-16 1.0
  outer loop
    vertex 7.525924274835584e-17 19.499999999999996 16.8
    vertex 9.299999999999994 17.299999999999986 16.799999999999997
    vertex 22.499999999999982 19.500000000000007 16.79999999999999
  endloop
endfacet
facet normal 2.5066368733759123e-16 -5.127211786450728e-16 1.0
  outer loop
    vertex 9.299999999999994 17.299999999999986 16.799999999999997
    vertex 7.525924274835584e-17 19.499999999999996 16.8
    vertex 9.299999999999994 10.7 16.79999999999999
  endloop
endfacet
facet normal 2.5066368733759123e-16 -5.127211786450728e-16 1.0
  outer loop
    vertex 22.499999999999982 19.500000000000007 16.79999999999999
    vertex 9.299999999999994 17.299999999999986 16.799999999999997
    vertex 13.599999999999987 17.299999999999986 16.799999999999997
  endloop
endfacet
facet normal 2.5066368733759123e-16 -5.127211786450728e-16 1.0
  outer loop
    vertex 22.499999999999982 19.500000000000007 16.79999999999999
    vertex 13.599999999999987 17.299999999999986 16.799999999999997
    vertex 22.499999999999982 8.500000000000016 16.79999999999999
  endloop
endfacet
facet normal -1.0 0.0 0.0
  outer loop
    vertex 16.89999999999998 19.50000000000003 6.0499999999999945
    vertex 16.89999999999998 18.050000000000022 0.9999999999999999
    vertex 16.89999999999998 18.050000000000008 6.050000000000006
  endloop
endfacet
facet normal -1.0 0.0 0.0
  outer loop
    vertex 16.89999999999998 18.050000000000022 0.9999999999999999
    vertex 16.89999999999998 19.50000000000003 6.0499999999999945
    vertex 16.89999999999998 19.500000000000007 3.0999999999999996
  endloop
endfacet
facet normal -1.0 0.0 0.0
  outer loop
    vertex 16.89999999999998 19.500000000000007 3.0999999999999996
    vertex 16.89999999999998 20.000000000000018 0.9999999999999943
    vertex 16.89999999999998 18.050000000000022 0.9999999999999999
  endloop
endfacet
facet normal -1.0 0.0 0.0
  outer loop
    vertex 16.89999999999998 20.000000000000018 0.9999999999999943
    vertex 16.89999999999998 19.500000000000007 3.0999999999999996
    vertex 16.89999999999998 20.000000000000018 3.100000000000017
  endloop
endfacet
facet normal 1.0 -0.0 -0.0
  outer loop
    vertex 5.899999999999989 18.050000000000022 0.9999999999999999
    vertex 5.899999999999989 19.500000000000007 6.05746295456724
    vertex 5.899999999999989 18.050000000000008 6.050000000000006
  endloop
endfacet
facet normal 1.0 -0.0 -0.0
  outer loop
    vertex 5.899999999999989 19.500000000000007 6.05746295456724
    vertex 5.899999999999989 18.050000000000022 0.9999999999999999
    vertex 5.899999999999989 19.500000000000018 3.1000000000000107
  endloop
endfacet
facet normal 1.0 -0.0 -0.0
  outer loop
    vertex 5.899999999999989 19.500000000000018 3.1000000000000107
    vertex 5.899999999999989 18.050000000000022 0.9999999999999999
    vertex 5.899999999999989 20.000000000000018 0.9999999999999943
  endloop
endfacet
facet normal 1.0 -0.0 -0.0
  outer loop
    vertex 5.899999999999989 19.500000000000018 3.1000000000000107
    vertex 5.899999999999989 20.000000000000018 0.9999999999999943
    vertex 5.899999999999989 20.000000000000018 3.100000000000017
  endloop
endfacet
facet normal 0.0 -3.481440101910981e-15 -1.0
  outer loop
    vertex 2.500000000000001 18.050000000000008 3.099999999999983
    vertex 0.0 9.950000000000001 3.100000000000011
    vertex 0.0 18.050000000000008 3.099999999999983
  endloop
endfacet
facet normal 0.0 -3.481440101910981e-15 -1.0
  outer loop
    vertex 0.0 9.950000000000001 3.100000000000011
    vertex 2.500000000000001 18.050000000000008 3.099999999999983
    vertex 2.500000000000001 9.950000000000001 3.100000000000011
  endloop
endfacet
facet normal 1.0 -0.0 -0.0
  outer loop
    vertex 5.9 8.000000000000005 0.9999999999999943
    vertex 5.9 8.499999999999993 3.099999999999977
    vertex 5.9 7.999999999999994 3.1
  endloop
endfacet
facet normal 1.0 -0.0 -0.0
  outer loop
    vertex 5.9 8.499999999999993 3.099999999999977
    vertex 5.9 8.000000000000005 0.9999999999999943
    vertex 5.9 9.94999999999999 0.9999999999999943
  endloop
endfacet
facet normal 1.0 -0.0 -0.0
  outer loop
    vertex 5.9 8.499999999999993 3.099999999999977
    vertex 5.9 9.94999999999999 0.9999999999999943
    vertex 5.9 8.500000000000004 6.05
  endloop
endfacet
facet normal 1.0 -0.0 -0.0
  outer loop
    vertex 5.9 8.500000000000004 6.05
    vertex 5.9 9.94999999999999 0.9999999999999943
    vertex 5.9 9.94999999999999 6.0499999999999945
  endloop
endfacet
facet normal 2.586875769447946e-16 -2.5361527150945824e-18 -1.0
  outer loop
    vertex 11.44999999999999 9.950000000000024 6.050000000000006
    vertex 5.9 8.500000000000004 6.05
    vertex 5.9 9.94999999999999 6.0499999999999945
  endloop
endfacet
facet normal 2.586875769447946e-16 -2.5361527150945824e-18 -1.0
  outer loop
    vertex 5.9 8.500000000000004 6.05
    vertex 11.44999999999999 9.950000000000024 6.050000000000006
    vertex 16.89999999999998 8.500000000000004 6.05
  endloop
endfacet
facet normal 2.586875769447946e-16 -2.5361527150945824e-18 -1.0
  outer loop
    vertex 16.89999999999998 8.500000000000004 6.05
    vertex 11.44999999999999 9.950000000000024 6.050000000000006
    vertex 16.89999999999998 9.950000000000001 6.05
  endloop
endfacet
facet normal 1.7817478024369083e-15 1.0 5.521822753947706e-16
  outer loop
    vertex 0.0 9.950000000000001 3.100000000000011
    vertex 5.9 9.94999999999999 0.9999999999999943
    vertex 9.517196885418082e-17 9.950000000000001 0.9999999999999943
  endloop
endfacet
facet normal 1.7817478024369083e-15 1.0 5.521822753947706e-16
  outer loop
    vertex 5.9 9.94999999999999 0.9999999999999943
    vertex 0.0 9.950000000000001 3.100000000000011
    vertex 2.500000000000001 9.950000000000001 3.100000000000011
  endloop
endfacet
facet normal 1.7817478024369083e-15 1.0 5.521822753947706e-16
  outer loop
    vertex 5.9 9.94999999999999 0.9999999999999943
    vertex 2.500000000000001 9.950000000000001 3.100000000000011
    vertex 5.9 9.94999999999999 6.0499999999999945
  endloop
endfacet
facet normal 1.7817478024369083e-15 1.0 5.521822753947706e-16
  outer loop
    vertex 5.9 9.94999999999999 6.0499999999999945
    vertex 2.500000000000001 9.950000000000001 3.100000000000011
    vertex 2.500000000000001 9.94999999999999 6.0499999999999945
  endloop
endfacet
facet normal -8.87580895014095e-17 -1.0 -1.4368397417183453e-15
  outer loop
    vertex 45.40000000000002 18.050000000000022 2.099999999999996
    vertex 16.89999999999998 18.050000000000022 0.9999999999999999
    vertex 45.40000000000002 18.050000000000008 0.9999999999999887
  endloop
endfacet
facet normal -8.87580895014095e-17 -1.0 -1.4368397417183453e-15
  outer loop
    vertex 16.89999999999998 18.050000000000022 0.9999999999999999
    vertex 45.40000000000002 18.050000000000022 2.099999999999996
    vertex 19.60779999999998 18.050000000000022 2.099999999999996
  endloop
endfacet
facet normal -8.87580895014095e-17 -1.0 -1.4368397417183453e-15
  outer loop
    vertex 16.89999999999998 18.050000000000022 0.9999999999999999
    vertex 19.60779999999998 18.050000000000022 2.099999999999996
    vertex 16.89999999999998 18.050000000000008 6.050000000000006
  endloop
endfacet
facet normal -8.87580895014095e-17 -1.0 -1.4368397417183453e-15
  outer loop
    vertex 16.89999999999998 18.050000000000008 6.050000000000006
    vertex 19.60779999999998 18.050000000000022 2.099999999999996
    vertex 19.60779999999998 18.050000000000008 6.050000000000006
  endloop
endfacet
facet normal -0.0 1.0 -0.0
  outer loop
    vertex 9.299999999999994 10.7 16.79999999999999
    vertex 13.599999999999987 10.7 8.049999999999994
    vertex 9.299999999999994 10.7 8.049999999999994
  endloop
endfacet
facet normal -0.0 1.0 -0.0
  outer loop
    vertex 13.599999999999987 10.7 8.049999999999994
    vertex 9.299999999999994 10.7 16.79999999999999
    vertex 13.599999999999987 10.7 16.79999999999999
  endloop
endfacet
facet normal -1.0 0.0 0.0
  outer loop
    vertex 13.599999999999987 17.299999999999986 16.799999999999997
    vertex 13.599999999999987 10.7 8.049999999999994
    vertex 13.599999999999987 10.7 16.79999999999999
  endloop
endfacet
facet normal -1.0 0.0 0.0
  outer loop
    vertex 13.599999999999987 10.7 8.049999999999994
    vertex 13.599999999999987 17.299999999999986 16.799999999999997
    vertex 13.599999999999987 17.30000000000001 8.049999999999994
  endloop
endfacet
facet normal -7.802911166360858e-31 -1.0 -2.5782550697580776e-15
  outer loop
    vertex 13.599999999999987 17.299999999999986 16.799999999999997
    vertex 9.299999999999994 17.30000000000001 8.049999999999997
    vertex 13.599999999999987 17.30000000000001 8.049999999999994
  endloop
endfacet
facet normal -7.802911166360858e-31 -1.0 -2.5782550697580776e-15
  outer loop
    vertex 9.299999999999994 17.30000000000001 8.049999999999997
    vertex 13.599999999999987 17.299999999999986 16.799999999999997
    vertex 9.299999999999994 17.299999999999986 16.799999999999997
  endloop
endfacet
facet normal 1.0 -0.0 -0.0
  outer loop
    vertex 9.299999999999994 17.30000000000001 8.049999999999997
    vertex 9.299999999999994 10.7 16.79999999999999
    vertex 9.299999999999994 10.7 8.049999999999994
  endloop
endfacet
facet normal 1.0 -0.0 -0.0
  outer loop
    vertex 9.299999999999994 10.7 16.79999999999999
    vertex 9.299999999999994 17.30000000000001 8.049999999999997
    vertex 9.299999999999994 17.299999999999986 16.799999999999997
  endloop
endfacet
facet normal 5.105387541358181e-16 -1.0 -1.9816834537553696e-15
  outer loop
    vertex 5.899999999999989 18.050000000000022 0.9999999999999999
    vertex 2.500000000000001 18.050000000000008 3.099999999999983
    vertex 9.517196885418082e-17 18.050000000000022 0.9999999999999999
  endloop
endfacet
facet normal 5.105387541358181e-16 -1.0 -1.9816834537553696e-15
  outer loop
    vertex 2.500000000000001 18.050000000000008 3.099999999999983
    vertex 5.899999999999989 18.050000000000022 0.9999999999999999
    vertex 5.899999999999989 18.050000000000008 6.050000000000006
  endloop
endfacet
facet normal 5.105387541358181e-16 -1.0 -1.9816834537553696e-15
  outer loop
    vertex 2.500000000000001 18.050000000000008 3.099999999999983
    vertex 5.899999999999989 18.050000000000008 6.050000000000006
    vertex 2.500000000000001 18.050000000000008 6.050000000000006
  endloop
endfacet
facet normal 5.105387541358181e-16 -1.0 -1.9816834537553696e-15
  outer loop
    vertex 0.0 18.050000000000008 3.099999999999983
    vertex 9.517196885418082e-17 18.050000000000022 0.9999999999999999
    vertex 2.500000000000001 18.050000000000008 3.099999999999983
  endloop
endfacet
facet normal 1.0 -0.0 -0.0
  outer loop
    vertex 2.500000000000001 9.950000000000001 3.100000000000011
    vertex 2.500000000000001 18.050000000000008 6.050000000000006
    vertex 2.500000000000001 9.94999999999999 6.0499999999999945
  endloop
endfacet
facet normal 1.0 -0.0 -0.0
  outer loop
    vertex 2.500000000000001 18.050000000000008 6.050000000000006
    vertex 2.500000000000001 9.950000000000001 3.100000000000011
    vertex 2.500000000000001 18.050000000000008 3.099999999999983
  endloop
endfacet
facet normal -1.0 0.0 0.0
  outer loop
    vertex 19.60779999999998 9.950000000000014 6.050000000000006
    vertex 19.60779999999998 18.050000000000022 2.099999999999996
    vertex 19.60779999999998 9.950000000000001 2.0999999999999903
  endloop
endfacet
facet normal -1.0 0.0 0.0
  outer loop
    vertex 19.60779999999998 18.050000000000022 2.099999999999996
    vertex 19.60779999999998 9.950000000000014 6.050000000000006
    vertex 19.60779999999998 18.050000000000008 6.050000000000006
  endloop
endfacet
facet normal -7.40651509871715e-17 3.9429807904155616e-16 -1.0
  outer loop
    vertex 7.538000403529275 15.048217132665224 8.049999999999999
    vertex 7.538000403529275 12.951782867334776 8.049999999999999
    vertex 7.400000000000009 14.00000000000001 8.049999999999994
  endloop
endfacet
facet normal -7.40651509871715e-17 3.9429807904155616e-16 -1.0
  outer loop
    vertex 7.538000403529275 12.951782867334776 8.049999999999999
    vertex 7.538000403529275 15.048217132665224 8.049999999999999
    vertex 7.942597114673028 16.025000000000006 8.049999999999988
  endloop
endfacet
facet normal -7.40651509871715e-17 3.9429807904155616e-16 -1.0
  outer loop
    vertex 7.538000403529275 12.951782867334776 8.049999999999999
    vertex 7.942597114673028 16.025000000000006 8.049999999999988
    vertex 7.942597114673028 11.975000000000003 8.049999999999999
  endloop
endfacet
facet normal -7.40651509871715e-17 3.9429807904155616e-16 -1.0
  outer loop
    vertex 7.942597114673028 11.975000000000003 8.049999999999999
    vertex 7.942597114673028 16.025000000000006 8.049999999999988
    vertex 8.586217536194482 16.863782463805524 8.049999999999994
  endloop
endfacet
facet normal -7.40651509871715e-17 3.9429807904155616e-16 -1.0
  outer loop
    vertex 7.942597114673028 11.975000000000003 8.049999999999999
    vertex 8.586217536194482 16.863782463805524 8.049999999999994
    vertex 8.586217536194482 11.136217536194485 8.050000000000002
  endloop
endfacet
facet normal -7.40651509871715e-17 3.9429807904155616e-16 -1.0
  outer loop
    vertex 8.586217536194482 11.136217536194485 8.050000000000002
    vertex 8.586217536194482 16.863782463805524 8.049999999999994
    vertex 9.299999999999994 17.30000000000001 8.049999999999997
  endloop
endfacet
facet normal -7.40651509871715e-17 3.9429807904155616e-16 -1.0
  outer loop
    vertex 9.299999999999994 17.30000000000001 8.049999999999997
    vertex 8.586217536194482 16.863782463805524 8.049999999999994
    vertex 9.424999999999999 17.50740288532698 8.049999999999994
  endloop
endfacet
facet normal -7.40651509871715e-17 3.9429807904155616e-16 -1.0
  outer loop
    vertex 9.299999999999994 17.30000000000001 8.049999999999997
    vertex 9.424999999999999 17.50740288532698 8.049999999999994
    vertex 13.599999999999987 17.30000000000001 8.049999999999994
  endloop
endfacet
facet normal -7.40651509871715e-17 3.9429807904155616e-16 -1.0
  outer loop
    vertex 13.599999999999987 17.30000000000001 8.049999999999994
    vertex 9.424999999999999 17.50740288532698 8.049999999999994
    vertex 10.401782867334784 17.911999596470732 8.049999999999994
  endloop
endfacet
facet normal -7.40651509871715e-17 3.9429807904155616e-16 -1.0
  outer loop
    vertex 13.599999999999987 17.30000000000001 8.049999999999994
    vertex 10.401782867334784 17.911999596470732 8.049999999999994
    vertex 11.44999999999999 18.050000000000008 8.049999999999997
  endloop
endfacet
facet normal -7.40651509871715e-17 3.9429807904155616e-16 -1.0
  outer loop
    vertex 13.599999999999987 17.30000000000001 8.049999999999994
    vertex 11.44999999999999 18.050000000000008 8.049999999999997
    vertex 12.498217132665209 17.91199959647072 8.049999999999985
  endloop
endfacet
facet normal -7.40651509871715e-17 3.9429807904155616e-16 -1.0
  outer loop
    vertex 13.599999999999987 17.30000000000001 8.049999999999994
    vertex 12.498217132665209 17.91199959647072 8.049999999999985
    vertex 13.47499999999998 17.50740288532698 8.04999999999999
  endloop
endfacet
facet normal -7.40651509871715e-17 3.9429807904155616e-16 -1.0
  outer loop
    vertex 13.599999999999987 17.30000000000001 8.049999999999994
    vertex 13.47499999999998 17.50740288532698 8.04999999999999
    vertex 14.313782463805499 16.863782463805524 8.049999999999994
  endloop
endfacet
facet normal -7.40651509871715e-17 3.9429807904155616e-16 -1.0
  outer loop
    vertex 13.599999999999987 17.30000000000001 8.049999999999994
    vertex 14.313782463805499 16.863782463805524 8.049999999999994
    vertex 13.599999999999987 10.7 8.049999999999994
  endloop
endfacet
facet normal -7.40651509871715e-17 3.9429807904155616e-16 -1.0
  outer loop
    vertex 8.586217536194482 11.136217536194485 8.050000000000002
    vertex 9.299999999999994 10.7 8.049999999999994
    vertex 9.424999999999999 10.492597114673034 8.04999999999998
  endloop
endfacet
facet normal -7.40651509871715e-17 3.9429807904155616e-16 -1.0
  outer loop
    vertex 9.299999999999994 10.7 8.049999999999994
    vertex 8.586217536194482 11.136217536194485 8.050000000000002
    vertex 9.299999999999994 17.30000000000001 8.049999999999997
  endloop
endfacet
facet normal -7.40651509871715e-17 3.9429807904155616e-16 -1.0
  outer loop
    vertex 9.424999999999999 10.492597114673034 8.04999999999998
    vertex 9.299999999999994 10.7 8.049999999999994
    vertex 13.599999999999987 10.7 8.049999999999994
  endloop
endfacet
facet normal -7.40651509871715e-17 3.9429807904155616e-16 -1.0
  outer loop
    vertex 9.424999999999999 10.492597114673034 8.04999999999998
    vertex 13.599999999999987 10.7 8.049999999999994
    vertex 10.401782867334795 10.088000403529268 8.04999999999998
  endloop
endfacet
facet normal -7.40651509871715e-17 3.9429807904155616e-16 -1.0
  outer loop
    vertex 10.401782867334795 10.088000403529268 8.04999999999998
    vertex 13.599999999999987 10.7 8.049999999999994
    vertex 11.44999999999999 9.950000000000014 8.049999999999994
  endloop
endfacet
facet normal -7.40651509871715e-17 3.9429807904155616e-16 -1.0
  outer loop
    vertex 11.44999999999999 9.950000000000014 8.049999999999994
    vertex 13.599999999999987 10.7 8.049999999999994
    vertex 12.498217132665209 10.088000403529268 8.04999999999998
  endloop
endfacet
facet normal -7.40651509871715e-17 3.9429807904155616e-16 -1.0
  outer loop
    vertex 12.498217132665209 10.088000403529268 8.04999999999998
    vertex 13.599999999999987 10.7 8.049999999999994
    vertex 13.47499999999998 10.492597114673034 8.04999999999998
  endloop
endfacet
facet normal -7.40651509871715e-17 3.9429807904155616e-16 -1.0
  outer loop
    vertex 13.47499999999998 10.492597114673034 8.04999999999998
    vertex 13.599999999999987 10.7 8.049999999999994
    vertex 14.313782463805499 11.136217536194485 8.050000000000002
  endloop
endfacet
facet normal -7.40651509871715e-17 3.9429807904155616e-16 -1.0
  outer loop
    vertex 14.313782463805499 11.136217536194485 8.050000000000002
    vertex 13.599999999999987 10.7 8.049999999999994
    vertex 14.313782463805499 16.863782463805524 8.049999999999994
  endloop
endfacet
facet normal -7.40651509871715e-17 3.9429807904155616e-16 -1.0
  outer loop
    vertex 14.313782463805499 11.136217536194485 8.050000000000002
    vertex 14.313782463805499 16.863782463805524 8.049999999999994
    vertex 14.957402885326953 16.02500000000002 8.049999999999988
  endloop
endfacet
facet normal -7.40651509871715e-17 3.9429807904155616e-16 -1.0
  outer loop
    vertex 14.313782463805499 11.136217536194485 8.050000000000002
    vertex 14.957402885326953 16.02500000000002 8.049999999999988
    vertex 14.957402885326953 11.975000000000003 8.049999999999999
  endloop
endfacet
facet normal -7.40651509871715e-17 3.9429807904155616e-16 -1.0
  outer loop
    vertex 14.957402885326953 11.975000000000003 8.049999999999999
    vertex 14.957402885326953 16.02500000000002 8.049999999999988
    vertex 15.361999596470705 15.048217132665224 8.049999999999997
  endloop
endfacet
facet normal -7.40651509871715e-17 3.9429807904155616e-16 -1.0
  outer loop
    vertex 14.957402885326953 11.975000000000003 8.049999999999999
    vertex 15.361999596470705 15.048217132665224 8.049999999999997
    vertex 15.361999596470705 12.951782867334787 8.050000000000002
  endloop
endfacet
facet normal -7.40651509871715e-17 3.9429807904155616e-16 -1.0
  outer loop
    vertex 15.361999596470705 12.951782867334787 8.050000000000002
    vertex 15.361999596470705 15.048217132665224 8.049999999999997
    vertex 15.499999999999982 14.00000000000001 8.049999999999994
  endloop
endfacet
facet normal -0.13052619222003836 0.9914448613738123 8.387279424974682e-15
  outer loop
    vertex 11.44999999999999 9.950000000000024 6.050000000000006
    vertex 12.498217132665209 10.088000403529268 8.04999999999998
    vertex 12.498217132665209 10.08800040352929 6.05
  endloop
endfacet
facet normal -0.2588190451025167 0.9659258262890695 5.544420982146566e-15
  outer loop
    vertex 12.498217132665209 10.088000403529268 8.04999999999998
    vertex 11.44999999999999 9.950000000000024 6.050000000000006
    vertex 11.44999999999999 9.950000000000014 8.049999999999994
  endloop
endfacet
facet normal 0.25881904510251397 0.9659258262890702 2.8213513988414916e-15
  outer loop
    vertex 10.401782867334795 10.088000403529268 8.04999999999998
    vertex 11.44999999999999 9.950000000000024 6.050000000000006
    vertex 10.401782867334795 10.088000403529279 6.050000000000006
  endloop
endfacet
facet normal 0.13052619222003586 0.9914448613738125 5.589951411881982e-15
  outer loop
    vertex 11.44999999999999 9.950000000000024 6.050000000000006
    vertex 10.401782867334795 10.088000403529268 8.04999999999998
    vertex 11.44999999999999 9.950000000000014 8.049999999999994
  endloop
endfacet
facet normal 0.5000000000000033 0.8660254037844368 3.5053552611920755e-18
  outer loop
    vertex 9.424999999999999 10.492597114673034 8.04999999999998
    vertex 10.401782867334795 10.088000403529279 6.050000000000006
    vertex 9.424999999999999 10.492597114673023 6.0499999999999945
  endloop
endfacet
facet normal 0.25881904510251524 0.9659258262890699 2.821351398841465e-15
  outer loop
    vertex 10.401782867334795 10.088000403529279 6.050000000000006
    vertex 9.424999999999999 10.492597114673034 8.04999999999998
    vertex 10.401782867334795 10.088000403529268 8.04999999999998
  endloop
endfacet
facet normal 0.7071067811865472 0.707106781186548 2.1826750926671337e-18
  outer loop
    vertex 8.586217536194482 11.136217536194497 6.050000000000017
    vertex 9.424999999999999 10.492597114673034 8.04999999999998
    vertex 9.424999999999999 10.492597114673023 6.0499999999999945
  endloop
endfacet
facet normal 0.5000000000000033 0.8660254037844368 3.5053552611920755e-18
  outer loop
    vertex 9.424999999999999 10.492597114673034 8.04999999999998
    vertex 8.586217536194482 11.136217536194497 6.050000000000017
    vertex 8.586217536194482 11.136217536194485 8.050000000000002
  endloop
endfacet
facet normal 0.7071067811865472 0.707106781186548 2.1826750926671337e-18
  outer loop
    vertex 8.586217536194482 11.136217536194497 6.050000000000017
    vertex 7.942597114673028 11.975000000000003 8.049999999999999
    vertex 8.586217536194482 11.136217536194485 8.050000000000002
  endloop
endfacet
facet normal 0.8660254037844375 0.5000000000000019 5.4384948581735865e-16
  outer loop
    vertex 7.942597114673028 11.975000000000003 8.049999999999999
    vertex 8.586217536194482 11.136217536194497 6.050000000000017
    vertex 7.942597114673028 11.974999999999993 6.050000000000011
  endloop
endfacet
facet normal 0.9659258262890691 0.2588190451025176 7.282492807214935e-16
  outer loop
    vertex 7.538000403529275 12.9517828673348 6.049999999999989
    vertex 7.942597114673028 11.975000000000003 8.049999999999999
    vertex 7.942597114673028 11.974999999999993 6.050000000000011
  endloop
endfacet
facet normal 0.8660254037844375 0.5000000000000019 5.4384948581735865e-16
  outer loop
    vertex 7.942597114673028 11.975000000000003 8.049999999999999
    vertex 7.538000403529275 12.9517828673348 6.049999999999989
    vertex 7.538000403529275 12.951782867334776 8.049999999999999
  endloop
endfacet
facet normal 0.9659258262890691 0.2588190451025176 7.282492807214935e-16
  outer loop
    vertex 7.538000403529275 12.9517828673348 6.049999999999989
    vertex 7.400000000000009 14.00000000000001 8.049999999999994
    vertex 7.538000403529275 12.951782867334776 8.049999999999999
  endloop
endfacet
facet normal 1.0 -4.633777145736369e-16 3.704066772422876e-16
  outer loop
    vertex 7.400000000000009 14.00000000000001 8.049999999999994
    vertex 7.538000403529275 12.9517828673348 6.049999999999989
    vertex 7.400000000000009 14.0 6.050000000000017
  endloop
endfacet
facet normal 0.9659258262890683 -0.25881904510252063 7.273109574632323e-16
  outer loop
    vertex 7.538000403529275 15.048217132665224 6.050000000000006
    vertex 7.400000000000009 14.00000000000001 8.049999999999994
    vertex 7.400000000000009 14.0 6.050000000000017
  endloop
endfacet
facet normal 1.0 -4.633777145736369e-16 3.704066772422876e-16
  outer loop
    vertex 7.400000000000009 14.00000000000001 8.049999999999994
    vertex 7.538000403529275 15.048217132665224 6.050000000000006
    vertex 7.538000403529275 15.048217132665224 8.049999999999999
  endloop
endfacet
facet normal 0.8660254037844372 -0.5000000000000027 3.1447946961866447e-15
  outer loop
    vertex 7.942597114673028 16.024999999999995 6.050000000000006
    vertex 7.538000403529275 15.048217132665224 8.049999999999999
    vertex 7.538000403529275 15.048217132665224 6.050000000000006
  endloop
endfacet
facet normal 0.9659258262890685 -0.25881904510251996 7.273109574632304e-16
  outer loop
    vertex 7.538000403529275 15.048217132665224 8.049999999999999
    vertex 7.942597114673028 16.024999999999995 6.050000000000006
    vertex 7.942597114673028 16.025000000000006 8.049999999999988
  endloop
endfacet
facet normal 0.7071067811865482 -0.7071067811865468 5.987653054533839e-15
  outer loop
    vertex 8.586217536194482 16.863782463805503 6.049999999999989
    vertex 7.942597114673028 16.025000000000006 8.049999999999988
    vertex 7.942597114673028 16.024999999999995 6.050000000000006
  endloop
endfacet
facet normal 0.8660254037844372 -0.5000000000000026 3.1447946961866424e-15
  outer loop
    vertex 7.942597114673028 16.025000000000006 8.049999999999988
    vertex 8.586217536194482 16.863782463805503 6.049999999999989
    vertex 8.586217536194482 16.863782463805524 8.049999999999994
  endloop
endfacet
facet normal 0.5000000000000023 -0.8660254037844375 6.011168753985476e-15
  outer loop
    vertex 9.424999999999999 17.507402885326968 6.05
    vertex 8.586217536194482 16.863782463805524 8.049999999999994
    vertex 8.586217536194482 16.863782463805503 6.049999999999989
  endloop
endfacet
facet normal 0.7071067811865474 -0.7071067811865477 5.9876530545338475e-15
  outer loop
    vertex 8.586217536194482 16.863782463805524 8.049999999999994
    vertex 9.424999999999999 17.507402885326968 6.05
    vertex 9.424999999999999 17.50740288532698 8.049999999999994
  endloop
endfacet
facet normal 0.2588190451025273 -0.9659258262890664 4.0338590882311504e-15
  outer loop
    vertex 10.401782867334784 17.911999596470732 8.049999999999994
    vertex 9.424999999999999 17.507402885326968 6.05
    vertex 10.401782867334784 17.91199959647072 6.049999999999989
  endloop
endfacet
facet normal 0.5000000000000023 -0.8660254037844375 6.011168753985476e-15
  outer loop
    vertex 9.424999999999999 17.507402885326968 6.05
    vertex 10.401782867334784 17.911999596470732 8.049999999999994
    vertex 9.424999999999999 17.50740288532698 8.049999999999994
  endloop
endfacet
facet normal -0.5000000000000016 -0.8660254037844378 2.2668435942851036e-15
  outer loop
    vertex 13.47499999999998 17.50740288532698 6.05
    vertex 12.498217132665209 17.91199959647072 8.049999999999985
    vertex 12.498217132665209 17.91199959647072 6.0499999999999945
  endloop
endfacet
facet normal -0.25881904510252646 -0.9659258262890669 3.672323098402689e-18
  outer loop
    vertex 12.498217132665209 17.91199959647072 8.049999999999985
    vertex 13.47499999999998 17.50740288532698 6.05
    vertex 13.47499999999998 17.50740288532698 8.04999999999999
  endloop
endfacet
facet normal -0.7071067811865466 -0.7071067811865485 4.8561467597860345e-15
  outer loop
    vertex 14.313782463805499 16.863782463805524 8.049999999999994
    vertex 13.47499999999998 17.50740288532698 6.05
    vertex 14.313782463805499 16.863782463805503 6.049999999999989
  endloop
endfacet
facet normal -0.5000000000000016 -0.8660254037844378 2.2668435942851036e-15
  outer loop
    vertex 13.47499999999998 17.50740288532698 6.05
    vertex 14.313782463805499 16.863782463805524 8.049999999999994
    vertex 13.47499999999998 17.50740288532698 8.04999999999999
  endloop
endfacet
facet normal -0.8660254037844365 -0.5000000000000038 3.134674026088592e-15
  outer loop
    vertex 14.957402885326953 16.02500000000002 8.049999999999988
    vertex 14.313782463805499 16.863782463805503 6.049999999999989
    vertex 14.957402885326953 16.025000000000006 6.050000000000006
  endloop
endfacet
facet normal -0.7071067811865475 -0.7071067811865477 4.8561467597860385e-15
  outer loop
    vertex 14.313782463805499 16.863782463805503 6.049999999999989
    vertex 14.957402885326953 16.02500000000002 8.049999999999988
    vertex 14.313782463805499 16.863782463805524 8.049999999999994
  endloop
endfacet
facet normal -0.8660254037844365 -0.5000000000000038 3.134674026088592e-15
  outer loop
    vertex 14.957402885326953 16.02500000000002 8.049999999999988
    vertex 15.361999596470705 15.048217132665224 6.049999999999989
    vertex 15.361999596470705 15.048217132665224 8.049999999999997
  endloop
endfacet
facet normal -0.9659258262890676 -0.2588190451025232 9.136483439482424e-16
  outer loop
    vertex 15.361999596470705 15.048217132665224 6.049999999999989
    vertex 14.957402885326953 16.02500000000002 8.049999999999988
    vertex 14.957402885326953 16.025000000000006 6.050000000000006
  endloop
endfacet
facet normal -1.0 3.3862217603458134e-16 1.84762699701648e-16
  outer loop
    vertex 15.499999999999982 14.00000000000001 8.049999999999994
    vertex 15.361999596470705 15.048217132665224 6.049999999999989
    vertex 15.499999999999982 13.999999999999988 6.050000000000011
  endloop
endfacet
facet normal -0.9659258262890676 -0.2588190451025232 9.136483439482424e-16
  outer loop
    vertex 15.361999596470705 15.048217132665224 6.049999999999989
    vertex 15.499999999999982 14.00000000000001 8.049999999999994
    vertex 15.361999596470705 15.048217132665224 8.049999999999997
  endloop
endfacet
facet normal -1.0 3.3862217603458134e-16 1.84762699701648e-16
  outer loop
    vertex 15.499999999999982 14.00000000000001 8.049999999999994
    vertex 15.361999596470705 12.9517828673348 6.049999999999989
    vertex 15.361999596470705 12.951782867334787 8.050000000000002
  endloop
endfacet
facet normal -0.9659258262890674 0.2588190451025238 3.573848427028754e-16
  outer loop
    vertex 15.361999596470705 12.9517828673348 6.049999999999989
    vertex 15.499999999999982 14.00000000000001 8.049999999999994
    vertex 15.499999999999982 13.999999999999988 6.050000000000011
  endloop
endfacet
facet normal -0.9659258262890673 0.25881904510252474 3.573848427028805e-16
  outer loop
    vertex 15.361999596470705 12.951782867334787 8.050000000000002
    vertex 14.957402885326953 11.975000000000003 6.050000000000006
    vertex 14.957402885326953 11.975000000000003 8.049999999999999
  endloop
endfacet
facet normal -0.8660254037844385 0.5000000000000003 1.4128263974435424e-15
  outer loop
    vertex 14.957402885326953 11.975000000000003 6.050000000000006
    vertex 15.361999596470705 12.951782867334787 8.050000000000002
    vertex 15.361999596470705 12.9517828673348 6.049999999999989
  endloop
endfacet
facet normal -0.8660254037844383 0.5000000000000008 1.4128263974435434e-15
  outer loop
    vertex 14.957402885326953 11.975000000000003 8.049999999999999
    vertex 14.313782463805499 11.136217536194497 6.05
    vertex 14.313782463805499 11.136217536194485 8.050000000000002
  endloop
endfacet
facet normal -0.7071067811865486 0.7071067811865466 8.725295142767401e-16
  outer loop
    vertex 14.313782463805499 11.136217536194497 6.05
    vertex 14.957402885326953 11.975000000000003 8.049999999999999
    vertex 14.957402885326953 11.975000000000003 6.050000000000006
  endloop
endfacet
facet normal -0.5000000000000046 0.8660254037844362 1.3177121097024652e-15
  outer loop
    vertex 13.47499999999998 10.492597114673034 8.04999999999998
    vertex 14.313782463805499 11.136217536194497 6.05
    vertex 13.47499999999998 10.492597114673023 6.0499999999999945
  endloop
endfacet
facet normal -0.7071067811865486 0.7071067811865466 8.725295142767401e-16
  outer loop
    vertex 14.313782463805499 11.136217536194497 6.05
    vertex 13.47499999999998 10.492597114673034 8.04999999999998
    vertex 14.313782463805499 11.136217536194485 8.050000000000002
  endloop
endfacet
facet normal -0.2588190451025181 0.965925826289069 5.5444209821465324e-15
  outer loop
    vertex 12.498217132665209 10.08800040352929 6.05
    vertex 13.47499999999998 10.492597114673034 8.04999999999998
    vertex 13.47499999999998 10.492597114673023 6.0499999999999945
  endloop
endfacet
facet normal -0.5000000000000046 0.8660254037844362 1.3177121097024652e-15
  outer loop
    vertex 13.47499999999998 10.492597114673034 8.04999999999998
    vertex 12.498217132665209 10.08800040352929 6.05
    vertex 12.498217132665209 10.088000403529268 8.04999999999998
  endloop
endfacet
facet normal 0.13052619222006073 -0.9914448613738094 2.7914884467547318e-15
  outer loop
    vertex 11.44999999999999 18.050000000000008 6.050000000000006
    vertex 10.401782867334784 17.911999596470732 8.049999999999994
    vertex 10.401782867334784 17.91199959647072 6.049999999999989
  endloop
endfacet
facet normal 0.2588190451025273 -0.9659258262890664 4.0338590882311504e-15
  outer loop
    vertex 10.401782867334784 17.911999596470732 8.049999999999994
    vertex 11.44999999999999 18.050000000000008 6.050000000000006
    vertex 11.44999999999999 18.050000000000008 8.049999999999997
  endloop
endfacet
facet normal -0.25881904510252646 -0.9659258262890669 3.672323098402689e-18
  outer loop
    vertex 12.498217132665209 17.91199959647072 8.049999999999985
    vertex 11.44999999999999 18.050000000000008 6.050000000000006
    vertex 12.498217132665209 17.91199959647072 6.0499999999999945
  endloop
endfacet
facet normal -0.1305261922200646 -0.9914448613738088 2.295144258139605e-18
  outer loop
    vertex 11.44999999999999 18.050000000000008 6.050000000000006
    vertex 12.498217132665209 17.91199959647072 8.049999999999985
    vertex 11.44999999999999 18.050000000000008 8.049999999999997
  endloop
endfacet
facet normal 5.459989458957017e-16 -6.50857106875105e-17 -1.0
  outer loop
    vertex 16.89999999999998 18.050000000000008 6.050000000000006
    vertex 12.498217132665209 17.91199959647072 6.0499999999999945
    vertex 11.44999999999999 18.050000000000008 6.050000000000006
  endloop
endfacet
facet normal 5.459989458957017e-16 -6.50857106875105e-17 -1.0
  outer loop
    vertex 12.498217132665209 17.91199959647072 6.0499999999999945
    vertex 16.89999999999998 18.050000000000008 6.050000000000006
    vertex 13.47499999999998 17.50740288532698 6.05
  endloop
endfacet
facet normal 5.459989458957017e-16 -6.50857106875105e-17 -1.0
  outer loop
    vertex 13.47499999999998 17.50740288532698 6.05
    vertex 16.89999999999998 18.050000000000008 6.050000000000006
    vertex 14.313782463805499 16.863782463805503 6.049999999999989
  endloop
endfacet
facet normal 5.459989458957017e-16 -6.50857106875105e-17 -1.0
  outer loop
    vertex 14.313782463805499 16.863782463805503 6.049999999999989
    vertex 16.89999999999998 18.050000000000008 6.050000000000006
    vertex 14.957402885326953 16.025000000000006 6.050000000000006
  endloop
endfacet
facet normal 5.459989458957017e-16 -6.50857106875105e-17 -1.0
  outer loop
    vertex 14.957402885326953 16.025000000000006 6.050000000000006
    vertex 16.89999999999998 18.050000000000008 6.050000000000006
    vertex 15.361999596470705 15.048217132665224 6.049999999999989
  endloop
endfacet
facet normal 5.459989458957017e-16 -6.50857106875105e-17 -1.0
  outer loop
    vertex 15.361999596470705 15.048217132665224 6.049999999999989
    vertex 16.89999999999998 18.050000000000008 6.050000000000006
    vertex 15.499999999999982 13.999999999999988 6.050000000000011
  endloop
endfacet
facet normal 5.459989458957017e-16 -6.50857106875105e-17 -1.0
  outer loop
    vertex 12.498217132665209 10.08800040352929 6.05
    vertex 16.89999999999998 9.950000000000001 6.05
    vertex 11.44999999999999 9.950000000000024 6.050000000000006
  endloop
endfacet
facet normal 5.459989458957017e-16 -6.50857106875105e-17 -1.0
  outer loop
    vertex 16.89999999999998 9.950000000000001 6.05
    vertex 12.498217132665209 10.08800040352929 6.05
    vertex 13.47499999999998 10.492597114673023 6.0499999999999945
  endloop
endfacet
facet normal 5.459989458957017e-16 -6.50857106875105e-17 -1.0
  outer loop
    vertex 16.89999999999998 9.950000000000001 6.05
    vertex 13.47499999999998 10.492597114673023 6.0499999999999945
    vertex 14.313782463805499 11.136217536194497 6.05
  endloop
endfacet
facet normal 5.459989458957017e-16 -6.50857106875105e-17 -1.0
  outer loop
    vertex 16.89999999999998 9.950000000000001 6.05
    vertex 14.313782463805499 11.136217536194497 6.05
    vertex 14.957402885326953 11.975000000000003 6.050000000000006
  endloop
endfacet
facet normal 5.459989458957017e-16 -6.50857106875105e-17 -1.0
  outer loop
    vertex 16.89999999999998 9.950000000000001 6.05
    vertex 14.957402885326953 11.975000000000003 6.050000000000006
    vertex 15.361999596470705 12.9517828673348 6.049999999999989
  endloop
endfacet
facet normal 5.459989458957017e-16 -6.50857106875105e-17 -1.0
  outer loop
    vertex 16.89999999999998 9.950000000000001 6.05
    vertex 15.361999596470705 12.9517828673348 6.049999999999989
    vertex 15.499999999999982 13.999999999999988 6.050000000000011
  endloop
endfacet
facet normal 5.459989458957017e-16 -6.50857106875105e-17 -1.0
  outer loop
    vertex 16.89999999999998 9.950000000000001 6.05
    vertex 15.499999999999982 13.999999999999988 6.050000000000011
    vertex 16.89999999999998 18.050000000000008 6.050000000000006
  endloop
endfacet
facet normal 5.459989458957017e-16 -6.50857106875105e-17 -1.0
  outer loop
    vertex 16.89999999999998 9.950000000000001 6.05
    vertex 16.89999999999998 18.050000000000008 6.050000000000006
    vertex 19.60779999999998 18.050000000000008 6.050000000000006
  endloop
endfacet
facet normal 5.459989458957017e-16 -6.50857106875105e-17 -1.0
  outer loop
    vertex 16.89999999999998 9.950000000000001 6.05
    vertex 19.60779999999998 18.050000000000008 6.050000000000006
    vertex 19.60779999999998 9.950000000000014 6.050000000000006
  endloop
endfacet
facet normal 1.3017730500304391e-16 -1.6341612029639975e-16 -1.0
  outer loop
    vertex 5.899999999999989 18.050000000000008 6.050000000000006
    vertex 2.500000000000001 9.94999999999999 6.0499999999999945
    vertex 2.500000000000001 18.050000000000008 6.050000000000006
  endloop
endfacet
facet normal 1.3017730500304391e-16 -1.6341612029639975e-16 -1.0
  outer loop
    vertex 2.500000000000001 9.94999999999999 6.0499999999999945
    vertex 5.899999999999989 18.050000000000008 6.050000000000006
    vertex 5.9 9.94999999999999 6.0499999999999945
  endloop
endfacet
facet normal 1.3017730500304391e-16 -1.6341612029639975e-16 -1.0
  outer loop
    vertex 5.9 9.94999999999999 6.0499999999999945
    vertex 5.899999999999989 18.050000000000008 6.050000000000006
    vertex 7.538000403529275 15.048217132665224 6.050000000000006
  endloop
endfacet
facet normal 1.3017730500304391e-16 -1.6341612029639975e-16 -1.0
  outer loop
    vertex 7.538000403529275 15.048217132665224 6.050000000000006
    vertex 5.899999999999989 18.050000000000008 6.050000000000006
    vertex 7.942597114673028 16.024999999999995 6.050000000000006
  endloop
endfacet
facet normal 1.3017730500304391e-16 -1.6341612029639975e-16 -1.0
  outer loop
    vertex 7.942597114673028 16.024999999999995 6.050000000000006
    vertex 5.899999999999989 18.050000000000008 6.050000000000006
    vertex 8.586217536194482 16.863782463805503 6.049999999999989
  endloop
endfacet
facet normal 1.3017730500304391e-16 -1.6341612029639975e-16 -1.0
  outer loop
    vertex 8.586217536194482 16.863782463805503 6.049999999999989
    vertex 5.899999999999989 18.050000000000008 6.050000000000006
    vertex 9.424999999999999 17.507402885326968 6.05
  endloop
endfacet
facet normal 1.3017730500304391e-16 -1.6341612029639975e-16 -1.0
  outer loop
    vertex 9.424999999999999 17.507402885326968 6.05
    vertex 5.899999999999989 18.050000000000008 6.050000000000006
    vertex 10.401782867334784 17.91199959647072 6.049999999999989
  endloop
endfacet
facet normal 1.3017730500304391e-16 -1.6341612029639975e-16 -1.0
  outer loop
    vertex 10.401782867334784 17.91199959647072 6.049999999999989
    vertex 5.899999999999989 18.050000000000008 6.050000000000006
    vertex 11.44999999999999 18.050000000000008 6.050000000000006
  endloop
endfacet
facet normal 1.3017730500304391e-16 -1.6341612029639975e-16 -1.0
  outer loop
    vertex 5.9 9.94999999999999 6.0499999999999945
    vertex 7.538000403529275 15.048217132665224 6.050000000000006
    vertex 7.400000000000009 14.0 6.050000000000017
  endloop
endfacet
facet normal 1.3017730500304391e-16 -1.6341612029639975e-16 -1.0
  outer loop
    vertex 5.9 9.94999999999999 6.0499999999999945
    vertex 10.401782867334795 10.088000403529279 6.050000000000006
    vertex 11.44999999999999 9.950000000000024 6.050000000000006
  endloop
endfacet
facet normal 1.3017730500304391e-16 -1.6341612029639975e-16 -1.0
  outer loop
    vertex 10.401782867334795 10.088000403529279 6.050000000000006
    vertex 5.9 9.94999999999999 6.0499999999999945
    vertex 9.424999999999999 10.492597114673023 6.0499999999999945
  endloop
endfacet
facet normal 1.3017730500304391e-16 -1.6341612029639975e-16 -1.0
  outer loop
    vertex 9.424999999999999 10.492597114673023 6.0499999999999945
    vertex 5.9 9.94999999999999 6.0499999999999945
    vertex 8.586217536194482 11.136217536194497 6.050000000000017
  endloop
endfacet
facet normal 1.3017730500304391e-16 -1.6341612029639975e-16 -1.0
  outer loop
    vertex 8.586217536194482 11.136217536194497 6.050000000000017
    vertex 5.9 9.94999999999999 6.0499999999999945
    vertex 7.942597114673028 11.974999999999993 6.050000000000011
  endloop
endfacet
facet normal 1.3017730500304391e-16 -1.6341612029639975e-16 -1.0
  outer loop
    vertex 7.942597114673028 11.974999999999993 6.050000000000011
    vertex 5.9 9.94999999999999 6.0499999999999945
    vertex 7.538000403529275 12.9517828673348 6.049999999999989
  endloop
endfacet
facet normal 1.3017730500304391e-16 -1.6341612029639975e-16 -1.0
  outer loop
    vertex 7.538000403529275 12.9517828673348 6.049999999999989
    vertex 5.9 9.94999999999999 6.0499999999999945
    vertex 7.400000000000009 14.0 6.050000000000017
  endloop
endfacet
facet normal 0.1583537871630914 0.9873824376051593 8.113512272423293e-16
  outer loop
    vertex 22.499999999999982 19.500000000000007 16.79999999999999
    vertex 49.000000000000014 15.250000000000018 3.1000000000000005
    vertex 22.499999999999982 19.500000000000018 3.1000000000000107
  endloop
endfacet
facet normal 0.15835378716309148 -0.9873824376051593 1.6876105526640398e-15
  outer loop
    vertex 22.499999999999982 8.500000000000016 16.79999999999999
    vertex 22.499999999999982 8.499999999999993 3.0999999999999885
    vertex 49.000000000000014 12.749999999999993 3.0999999999999885
  endloop
endfacet
facet normal -8.48339335135459e-17 1.0 -1.8040799391640026e-15
  outer loop
    vertex 16.89999999999998 9.950000000000001 6.05
    vertex 19.60779999999998 9.950000000000001 2.0999999999999903
    vertex 16.89999999999998 9.950000000000001 0.9999999999999943
  endloop
endfacet
facet normal -8.48339335135459e-17 1.0 -1.8040799391640026e-15
  outer loop
    vertex 19.60779999999998 9.950000000000001 2.0999999999999903
    vertex 16.89999999999998 9.950000000000001 6.05
    vertex 19.60779999999998 9.950000000000014 6.050000000000006
  endloop
endfacet
facet normal -8.48339335135459e-17 1.0 -1.8040799391640026e-15
  outer loop
    vertex 16.89999999999998 9.950000000000001 0.9999999999999943
    vertex 45.40000000000002 9.950000000000014 2.0999999999999903
    vertex 45.40000000000002 9.94999999999999 0.9999999999999887
  endloop
endfacet
facet normal -8.48339335135459e-17 1.0 -1.8040799391640026e-15
  outer loop
    vertex 45.40000000000002 9.950000000000014 2.0999999999999903
    vertex 16.89999999999998 9.950000000000001 0.9999999999999943
    vertex 19.60779999999998 9.950000000000001 2.0999999999999903
  endloop
endfacet
facet normal -1.0 0.0 0.0
  outer loop
    vertex 45.40000000000002 9.950000000000014 2.0999999999999903
    vertex 45.40000000000002 18.050000000000008 0.9999999999999887
    vertex 45.40000000000002 9.94999999999999 0.9999999999999887
  endloop
endfacet
facet normal -1.0 0.0 0.0
  outer loop
    vertex 45.40000000000002 18.050000000000008 0.9999999999999887
    vertex 45.40000000000002 9.950000000000014 2.0999999999999903
    vertex 45.40000000000002 18.050000000000022 2.099999999999996
  endloop
endfacet
facet normal -1.4994079402679315e-31 6.962880203821957e-16 -1.0
  outer loop
    vertex 45.40000000000002 18.050000000000022 2.099999999999996
    vertex 19.60779999999998 9.950000000000001 2.0999999999999903
    vertex 19.60779999999998 18.050000000000022 2.099999999999996
  endloop
endfacet
facet normal -1.4994079402679315e-31 6.962880203821957e-16 -1.0
  outer loop
    vertex 19.60779999999998 9.950000000000001 2.0999999999999903
    vertex 45.40000000000002 18.050000000000022 2.099999999999996
    vertex 45.40000000000002 9.950000000000014 2.0999999999999903
  endloop
endfacet
facet normal -3.0103697099342335e-16 1.0 1.0833406504006698e-15
  outer loop
    vertex 7.525924274835584e-17 19.499999999999996 16.8
    vertex 5.899999999999989 19.500000000000018 3.1000000000000107
    vertex 7.525924274835584e-17 19.500000000000018 3.1000000000000107
  endloop
endfacet
facet normal -3.0103697099342335e-16 1.0 1.0833406504006698e-15
  outer loop
    vertex 5.899999999999989 19.500000000000018 3.1000000000000107
    vertex 7.525924274835584e-17 19.499999999999996 16.8
    vertex 5.899999999999989 19.500000000000007 6.05746295456724
  endloop
endfacet
facet normal -3.0103697099342335e-16 1.0 1.0833406504006698e-15
  outer loop
    vertex 5.899999999999989 19.500000000000007 6.05746295456724
    vertex 7.525924274835584e-17 19.499999999999996 16.8
    vertex 22.499999999999982 19.500000000000007 16.79999999999999
  endloop
endfacet
facet normal -3.0103697099342335e-16 1.0 1.0833406504006698e-15
  outer loop
    vertex 16.89999999999998 19.50000000000003 6.0499999999999945
    vertex 22.499999999999982 19.500000000000018 3.1000000000000107
    vertex 16.89999999999998 19.500000000000007 3.0999999999999996
  endloop
endfacet
facet normal -3.0103697099342335e-16 1.0 1.0833406504006698e-15
  outer loop
    vertex 22.499999999999982 19.500000000000018 3.1000000000000107
    vertex 16.89999999999998 19.50000000000003 6.0499999999999945
    vertex 22.499999999999982 19.500000000000007 16.79999999999999
  endloop
endfacet
facet normal -3.0103697099342335e-16 1.0 1.0833406504006698e-15
  outer loop
    vertex 22.499999999999982 19.500000000000007 16.79999999999999
    vertex 16.89999999999998 19.50000000000003 6.0499999999999945
    vertex 5.899999999999989 19.500000000000007 6.05746295456724
  endloop
endfacet
facet normal 2.039368668191215e-16 -1.0 1.1634574272309322e-15
  outer loop
    vertex 22.499999999999982 8.500000000000016 16.79999999999999
    vertex 16.89999999999998 8.499999999999993 3.0999999999999885
    vertex 22.499999999999982 8.499999999999993 3.0999999999999885
  endloop
endfacet
facet normal 2.039368668191215e-16 -1.0 1.1634574272309322e-15
  outer loop
    vertex 16.89999999999998 8.499999999999993 3.0999999999999885
    vertex 22.499999999999982 8.500000000000016 16.79999999999999
    vertex 16.89999999999998 8.500000000000004 6.05
  endloop
endfacet
facet normal 2.039368668191215e-16 -1.0 1.1634574272309322e-15
  outer loop
    vertex 16.89999999999998 8.500000000000004 6.05
    vertex 22.499999999999982 8.500000000000016 16.79999999999999
    vertex 5.9 8.500000000000004 6.05
  endloop
endfacet
facet normal 2.039368668191215e-16 -1.0 1.1634574272309322e-15
  outer loop
    vertex 5.9 8.500000000000004 6.05
    vertex -5.098421670478038e-17 8.499999999999993 3.099999999999977
    vertex 5.9 8.499999999999993 3.099999999999977
  endloop
endfacet
facet normal 2.039368668191215e-16 -1.0 1.1634574272309322e-15
  outer loop
    vertex -5.098421670478038e-17 8.499999999999993 3.099999999999977
    vertex 5.9 8.500000000000004 6.05
    vertex -1.1330850146896371e-14 8.500000000000004 16.79999999999999
  endloop
endfacet
facet normal 2.039368668191215e-16 -1.0 1.1634574272309322e-15
  outer loop
    vertex -1.1330850146896371e-14 8.500000000000004 16.79999999999999
    vertex 5.9 8.500000000000004 6.05
    vertex 22.499999999999982 8.500000000000016 16.79999999999999
  endloop
endfacet
facet normal -0.000339219395779263 0.0025695248923050763 -0.999996641230374
  outer loop
    vertex 16.89999999999998 19.50000000000003 6.0499999999999945
    vertex 5.899999999999989 18.050000000000008 6.050000000000006
    vertex 5.899999999999989 19.500000000000007 6.05746295456724
  endloop
endfacet
facet normal -0.000339219395779263 0.0025695248923050763 -0.999996641230374
  outer loop
    vertex 5.899999999999989 18.050000000000008 6.050000000000006
    vertex 16.89999999999998 19.50000000000003 6.0499999999999945
    vertex 11.44999999999999 18.050000000000008 6.050000000000006
  endloop
endfacet
facet normal -0.000339219395779263 0.0025695248923050763 -0.999996641230374
  outer loop
    vertex 11.44999999999999 18.050000000000008 6.050000000000006
    vertex 16.89999999999998 19.50000000000003 6.0499999999999945
    vertex 16.89999999999998 18.050000000000008 6.050000000000006
  endloop
endfacet
facet normal 2.1095738054970124e-16 -1.2643629916994156e-15 1.0
  outer loop
    vertex 22.499999999999982 19.500000000000018 3.1000000000000107
    vertex 16.89999999999998 20.000000000000018 3.100000000000017
    vertex 16.89999999999998 19.500000000000007 3.0999999999999996
  endloop
endfacet
facet normal 2.1095738054970124e-16 -1.2643629916994156e-15 1.0
  outer loop
    vertex 7.525924274835584e-17 19.500000000000018 3.1000000000000107
    vertex 22.99999999999998 27.999999999999993 3.1000000000000227
    vertex 0.0 27.999999999999993 3.1000000000000227
  endloop
endfacet
facet normal 2.1095738054970124e-16 -1.2643629916994156e-15 1.0
  outer loop
    vertex 22.99999999999998 27.999999999999993 3.1000000000000227
    vertex 7.525924274835584e-17 19.500000000000018 3.1000000000000107
    vertex 5.899999999999989 20.000000000000018 3.100000000000017
  endloop
endfacet
facet normal 2.1095738054970124e-16 -1.2643629916994156e-15 1.0
  outer loop
    vertex 5.899999999999989 20.000000000000018 3.100000000000017
    vertex 7.525924274835584e-17 19.500000000000018 3.1000000000000107
    vertex 5.899999999999989 19.500000000000018 3.1000000000000107
  endloop
endfacet
facet normal 2.1095738054970124e-16 -1.2643629916994156e-15 1.0
  outer loop
    vertex 22.99999999999998 27.999999999999993 3.1000000000000227
    vertex 5.899999999999989 20.000000000000018 3.100000000000017
    vertex 16.89999999999998 20.000000000000018 3.100000000000017
  endloop
endfacet
facet normal 2.1095738054970124e-16 -1.2643629916994156e-15 1.0
  outer loop
    vertex 22.99999999999998 27.999999999999993 3.1000000000000227
    vertex 16.89999999999998 20.000000000000018 3.100000000000017
    vertex 22.499999999999982 19.500000000000018 3.1000000000000107
  endloop
endfacet
facet normal 2.1095738054970124e-16 -1.2643629916994156e-15 1.0
  outer loop
    vertex 22.99999999999998 27.999999999999993 3.1000000000000227
    vertex 22.499999999999982 19.500000000000018 3.1000000000000107
    vertex 49.000000000000014 15.250000000000018 3.1000000000000005
  endloop
endfacet
facet normal 2.1095738054970124e-16 -1.2643629916994156e-15 1.0
  outer loop
    vertex 22.99999999999998 27.999999999999993 3.1000000000000227
    vertex 49.000000000000014 15.250000000000018 3.1000000000000005
    vertex 49.000000000000014 21.250000000000025 3.1
  endloop
endfacet
facet normal 0.45924052363904194 -2.160453856738433e-16 0.8883119617835497
  outer loop
    vertex 49.000000000000014 12.749999999999993 3.0999999999999885
    vertex 22.499999999999982 19.500000000000007 16.79999999999999
    vertex 22.499999999999982 8.500000000000016 16.79999999999999
  endloop
endfacet
facet normal 0.45924052363904194 -2.160453856738433e-16 0.8883119617835497
  outer loop
    vertex 22.499999999999982 19.500000000000007 16.79999999999999
    vertex 49.000000000000014 12.749999999999993 3.0999999999999885
    vertex 49.000000000000014 15.250000000000018 3.1000000000000005
  endloop
endfacet
facet normal -2.787961108083418e-16 1.8031692033763697e-17 1.0
  outer loop
    vertex 23.000000000000004 1.127986593019159e-14 3.099999999999983
    vertex 5.9 7.999999999999994 3.1
    vertex 0.0 1.127986593019159e-14 3.099999999999983
  endloop
endfacet
facet normal -2.787961108083418e-16 1.8031692033763697e-17 1.0
  outer loop
    vertex 5.9 7.999999999999994 3.1
    vertex 23.000000000000004 1.127986593019159e-14 3.099999999999983
    vertex 16.89999999999998 7.999999999999994 3.0999999999999943
  endloop
endfacet
facet normal -2.787961108083418e-16 1.8031692033763697e-17 1.0
  outer loop
    vertex 16.89999999999998 7.999999999999994 3.0999999999999943
    vertex 23.000000000000004 1.127986593019159e-14 3.099999999999983
    vertex 16.89999999999998 8.499999999999993 3.0999999999999885
  endloop
endfacet
facet normal -2.787961108083418e-16 1.8031692033763697e-17 1.0
  outer loop
    vertex 16.89999999999998 8.499999999999993 3.0999999999999885
    vertex 23.000000000000004 1.127986593019159e-14 3.099999999999983
    vertex 22.499999999999982 8.499999999999993 3.0999999999999885
  endloop
endfacet
facet normal -2.787961108083418e-16 1.8031692033763697e-17 1.0
  outer loop
    vertex 22.499999999999982 8.499999999999993 3.0999999999999885
    vertex 23.000000000000004 1.127986593019159e-14 3.099999999999983
    vertex 49.000000000000014 12.749999999999993 3.0999999999999885
  endloop
endfacet
facet normal -2.787961108083418e-16 1.8031692033763697e-17 1.0
  outer loop
    vertex 49.000000000000014 12.749999999999993 3.0999999999999885
    vertex 23.000000000000004 1.127986593019159e-14 3.099999999999983
    vertex 49.000000000000014 6.7499999999999964 3.1000000000000054
  endloop
endfacet
facet normal -2.787961108083418e-16 1.8031692033763697e-17 1.0
  outer loop
    vertex 0.0 1.127986593019159e-14 3.099999999999983
    vertex 5.9 8.499999999999993 3.099999999999977
    vertex -5.098421670478038e-17 8.499999999999993 3.099999999999977
  endloop
endfacet
facet normal -2.787961108083418e-16 1.8031692033763697e-17 1.0
  outer loop
    vertex 5.9 8.499999999999993 3.099999999999977
    vertex 0.0 1.127986593019159e-14 3.099999999999983
    vertex 5.9 7.999999999999994 3.1
  endloop
endfacet
endsolid Drawer Slide Clip
