solid Case Runner
facet normal -0.0 1.0 -0.0
  outer loop
    vertex -1.4518483848705286e-16 27.999999999999993 1.5745000000000242
    vertex 22.99999999999998 27.999999999999993 1.6919798895287383e-14
    vertex -1.983415545167437e-18 27.999999999999993 1.6919798895287383e-14
  endloop
endfacet
facet normal -0.0 1.0 -0.0
  outer loop
    vertex 22.99999999999998 27.999999999999993 1.6919798895287383e-14
    vertex -1.4518483848705286e-16 27.999999999999993 1.5745000000000242
    vertex 22.99999999999998 27.999999999999993 1.5745000000000242
  endloop
endfacet
facet normal 0.25128513341682096 0.9679131064944264 -3.3108660303913863e-15
  outer loop
    vertex 22.99999999999998 27.999999999999993 1.6919798895287383e-14
    vertex 49.000000000000014 21.250000000000025 1.5745000000000016
    vertex 49.000000000000014 21.250000000000014 0.0
  endloop
endfacet
facet normal 0.25128513341682096 0.9679131064944264 -3.3108660303913863e-15
  outer loop
    vertex 49.000000000000014 21.250000000000025 1.5745000000000016
    vertex 22.99999999999998 27.999999999999993 1.6919798895287383e-14
    vertex 22.99999999999998 27.999999999999993 1.5745000000000242
  endloop
endfacet
facet normal 1.0 -0.0 -0.0
  outer loop
    vertex 49.000000000000014 21.250000000000014 0.0
    vertex 49.000000000000014 6.7499999999999964 1.5745000000000073
    vertex 49.000000000000014 6.7499999999999964 0.0
  endloop
endfacet
facet normal 1.0 -0.0 -0.0
  outer loop
    vertex 49.000000000000014 6.7499999999999964 1.5745000000000073
    vertex 49.000000000000014 21.250000000000014 0.0
    vertex 49.000000000000014 12.749999999999993 1.5744999999999902
  endloop
endfacet
facet normal 1.0 -0.0 -0.0
  outer loop
    vertex 49.000000000000014 12.749999999999993 1.5744999999999902
    vertex 49.000000000000014 21.250000000000014 0.0
    vertex 49.000000000000014 15.250000000000018 1.5745000000000022
  endloop
endfacet
facet normal 1.0 -0.0 -0.0
  outer loop
    vertex 49.000000000000014 15.250000000000018 1.5745000000000022
    vertex 49.000000000000014 21.250000000000014 0.0
    vertex 49.000000000000014 21.250000000000025 1.5745000000000016
  endloop
endfacet
facet normal 0.25128513341682174 -0.9679131064944262 3.7058170543211186e-15
  outer loop
    vertex 49.000000000000014 6.7499999999999964 1.5745000000000073
    vertex 23.000000000000004 0.0 0.0
    vertex 49.000000000000014 6.7499999999999964 0.0
  endloop
endfacet
facet normal 0.25128513341682174 -0.9679131064944262 3.7058170543211186e-15
  outer loop
    vertex 23.000000000000004 0.0 0.0
    vertex 49.000000000000014 6.7499999999999964 1.5745000000000073
    vertex 23.000000000000004 1.1984857550828564e-14 1.5744999999999847
  endloop
endfacet
facet normal 0.0 -1.0 7.611849825867691e-15
  outer loop
    vertex 23.000000000000004 1.1984857550828564e-14 1.5744999999999847
    vertex -1.983415545167437e-18 0.0 0.0
    vertex 23.000000000000004 0.0 0.0
  endloop
endfacet
facet normal 0.0 -1.0 7.611849825867691e-15
  outer loop
    vertex -1.983415545167437e-18 0.0 0.0
    vertex 23.000000000000004 1.1984857550828564e-14 1.5744999999999847
    vertex -1.4518483848705286e-16 1.1984857550828564e-14 1.5744999999999847
  endloop
endfacet
facet normal -1.0 7.015835119736786e-17 -3.959646245487261e-16
  outer loop
    vertex -1.4518483848705286e-16 1.1984857550828564e-14 1.5744999999999847
    vertex -1.983415545167437e-18 27.999999999999993 1.6919798895287383e-14
    vertex -1.983415545167437e-18 0.0 0.0
  endloop
endfacet
facet normal -1.0 7.015835119736786e-17 -3.959646245487261e-16
  outer loop
    vertex -1.983415545167437e-18 27.999999999999993 1.6919798895287383e-14
    vertex -1.4518483848705286e-16 1.1984857550828564e-14 1.5744999999999847
    vertex -2.0026230884931648e-16 8.499999999999993 1.5744999999999783
  endloop
endfacet
facet normal -1.0 7.015835119736786e-17 -3.959646245487261e-16
  outer loop
    vertex -1.983415545167437e-18 27.999999999999993 1.6919798895287383e-14
    vertex -2.0026230884931648e-16 8.499999999999993 1.5744999999999783
    vertex -6.807637997988379e-17 19.500000000000018 1.5745000000000122
  endloop
endfacet
facet normal -1.0 7.015835119736786e-17 -3.959646245487261e-16
  outer loop
    vertex -6.807637997988379e-17 19.500000000000018 1.5745000000000122
    vertex -2.0026230884931648e-16 8.499999999999993 1.5744999999999783
    vertex -1.1480128239040907e-14 8.500000000000004 15.274499999999986
  endloop
endfacet
facet normal -1.0 7.015835119736786e-17 -3.959646245487261e-16
  outer loop
    vertex -6.807637997988379e-17 19.500000000000018 1.5745000000000122
    vertex -1.1480128239040907e-14 8.500000000000004 15.274499999999986
    vertex -6.807637997988379e-17 19.499999999999996 15.274499999999996
  endloop
endfacet
facet normal -1.0 7.015835119736786e-17 -3.959646245487261e-16
  outer loop
    vertex -1.983415545167437e-18 27.999999999999993 1.6919798895287383e-14
    vertex -6.807637997988379e-17 19.500000000000018 1.5745000000000122
    vertex -1.4518483848705286e-16 27.999999999999993 1.5745000000000242
  endloop
endfacet
facet normal 2.5066368733759123e-16 -5.127211786450728e-16 1.0
  outer loop
    vertex -1.1480128239040907e-14 8.500000000000004 15.274499999999986
    vertex 9.299999999999994 10.7 15.274499999999986
    vertex -6.807637997988379e-17 19.499999999999996 15.274499999999996
  endloop
endfacet
facet normal 2.5066368733759123e-16 -5.127211786450728e-16 1.0
  outer loop
    vertex 9.299999999999994 10.7 15.274499999999986
    vertex -1.1480128239040907e-14 8.500000000000004 15.274499999999986
    vertex 22.499999999999982 8.500000000000016 15.274499999999986
  endloop
endfacet
facet normal 2.5066368733759123e-16 -5.127211786450728e-16 1.0
  outer loop
    vertex 9.299999999999994 10.7 15.274499999999986
    vertex 22.499999999999982 8.500000000000016 15.274499999999986
    vertex 13.599999999999987 10.7 15.274499999999986
  endloop
endfacet
facet normal 2.5066368733759123e-16 -5.127211786450728e-16 1.0
  outer loop
    vertex 13.599999999999987 10.7 15.274499999999986
    vertex 22.499999999999982 8.500000000000016 15.274499999999986
    vertex 13.599999999999987 17.299999999999986 15.27449999999999
  endloop
endfacet
facet normal 2.5066368733759123e-16 -5.127211786450728e-16 1.0
  outer loop
    vertex -6.807637997988379e-17 19.499999999999996 15.274499999999996
    vertex 9.299999999999994 17.299999999999986 15.27449999999999
    vertex 22.499999999999982 19.500000000000007 15.274499999999986
  endloop
endfacet
facet normal 2.5066368733759123e-16 -5.127211786450728e-16 1.0
  outer loop
    vertex 9.299999999999994 17.299999999999986 15.27449999999999
    vertex -6.807637997988379e-17 19.499999999999996 15.274499999999996
    vertex 9.299999999999994 10.7 15.274499999999986
  endloop
endfacet
facet normal 2.5066368733759123e-16 -5.127211786450728e-16 1.0
  outer loop
    vertex 22.499999999999982 19.500000000000007 15.274499999999986
    vertex 9.299999999999994 17.299999999999986 15.27449999999999
    vertex 13.599999999999987 17.299999999999986 15.27449999999999
  endloop
endfacet
facet normal 2.5066368733759123e-16 -5.127211786450728e-16 1.0
  outer loop
    vertex 22.499999999999982 19.500000000000007 15.274499999999986
    vertex 13.599999999999987 17.299999999999986 15.27449999999999
    vertex 22.499999999999982 8.500000000000016 15.274499999999986
  endloop
endfacet
facet normal -0.0 1.0 -0.0
  outer loop
    vertex 9.299999999999994 10.7 15.274499999999986
    vertex 13.599999999999987 10.7 6.524499999999999
    vertex 9.299999999999994 10.7 6.524499999999999
  endloop
endfacet
facet normal -0.0 1.0 -0.0
  outer loop
    vertex 13.599999999999987 10.7 6.524499999999999
    vertex 9.299999999999994 10.7 15.274499999999986
    vertex 13.599999999999987 10.7 15.274499999999986
  endloop
endfacet
facet normal -1.0 0.0 0.0
  outer loop
    vertex 13.599999999999987 17.299999999999986 15.27449999999999
    vertex 13.599999999999987 10.7 6.524499999999999
    vertex 13.599999999999987 10.7 15.274499999999986
  endloop
endfacet
facet normal -1.0 0.0 0.0
  outer loop
    vertex 13.599999999999987 10.7 6.524499999999999
    vertex 13.599999999999987 17.299999999999986 15.27449999999999
    vertex 13.599999999999987 17.30000000000001 6.524499999999999
  endloop
endfacet
facet normal -7.802911166360866e-31 -1.0 -2.5782550697580803e-15
  outer loop
    vertex 13.599999999999987 17.299999999999986 15.27449999999999
    vertex 9.299999999999994 17.30000000000001 6.5245000000000015
    vertex 13.599999999999987 17.30000000000001 6.524499999999999
  endloop
endfacet
facet normal -7.802911166360866e-31 -1.0 -2.5782550697580803e-15
  outer loop
    vertex 9.299999999999994 17.30000000000001 6.5245000000000015
    vertex 13.599999999999987 17.299999999999986 15.27449999999999
    vertex 9.299999999999994 17.299999999999986 15.27449999999999
  endloop
endfacet
facet normal 1.0 -0.0 -0.0
  outer loop
    vertex 9.299999999999994 17.30000000000001 6.5245000000000015
    vertex 9.299999999999994 10.7 15.274499999999986
    vertex 9.299999999999994 10.7 6.524499999999999
  endloop
endfacet
facet normal 1.0 -0.0 -0.0
  outer loop
    vertex 9.299999999999994 10.7 15.274499999999986
    vertex 9.299999999999994 17.30000000000001 6.5245000000000015
    vertex 9.299999999999994 17.299999999999986 15.27449999999999
  endloop
endfacet
facet normal -7.40651509871715e-17 3.9429807904155616e-16 -1.0
  outer loop
    vertex 7.538000403529275 15.048217132665224 6.524500000000004
    vertex 7.538000403529275 12.951782867334776 6.524500000000004
    vertex 7.400000000000009 14.00000000000001 6.524499999999999
  endloop
endfacet
facet normal -7.40651509871715e-17 3.9429807904155616e-16 -1.0
  outer loop
    vertex 7.538000403529275 12.951782867334776 6.524500000000004
    vertex 7.538000403529275 15.048217132665224 6.524500000000004
    vertex 7.942597114673028 16.025000000000006 6.524499999999993
  endloop
endfacet
facet normal -7.40651509871715e-17 3.9429807904155616e-16 -1.0
  outer loop
    vertex 7.538000403529275 12.951782867334776 6.524500000000004
    vertex 7.942597114673028 16.025000000000006 6.524499999999993
    vertex 7.942597114673028 11.975000000000003 6.524500000000004
  endloop
endfacet
facet normal -7.40651509871715e-17 3.9429807904155616e-16 -1.0
  outer loop
    vertex 7.942597114673028 11.975000000000003 6.524500000000004
    vertex 7.942597114673028 16.025000000000006 6.524499999999993
    vertex 8.586217536194482 16.863782463805524 6.524499999999999
  endloop
endfacet
facet normal -7.40651509871715e-17 3.9429807904155616e-16 -1.0
  outer loop
    vertex 7.942597114673028 11.975000000000003 6.524500000000004
    vertex 8.586217536194482 16.863782463805524 6.524499999999999
    vertex 8.586217536194482 11.136217536194485 6.524500000000007
  endloop
endfacet
facet normal -7.40651509871715e-17 3.9429807904155616e-16 -1.0
  outer loop
    vertex 8.586217536194482 11.136217536194485 6.524500000000007
    vertex 8.586217536194482 16.863782463805524 6.524499999999999
    vertex 9.299999999999994 17.30000000000001 6.5245000000000015
  endloop
endfacet
facet normal -7.40651509871715e-17 3.9429807904155616e-16 -1.0
  outer loop
    vertex 9.299999999999994 17.30000000000001 6.5245000000000015
    vertex 8.586217536194482 16.863782463805524 6.524499999999999
    vertex 9.424999999999999 17.50740288532698 6.524499999999999
  endloop
endfacet
facet normal -7.40651509871715e-17 3.9429807904155616e-16 -1.0
  outer loop
    vertex 9.299999999999994 17.30000000000001 6.5245000000000015
    vertex 9.424999999999999 17.50740288532698 6.524499999999999
    vertex 13.599999999999987 17.30000000000001 6.524499999999999
  endloop
endfacet
facet normal -7.40651509871715e-17 3.9429807904155616e-16 -1.0
  outer loop
    vertex 13.599999999999987 17.30000000000001 6.524499999999999
    vertex 9.424999999999999 17.50740288532698 6.524499999999999
    vertex 10.401782867334784 17.911999596470732 6.524499999999999
  endloop
endfacet
facet normal -7.40651509871715e-17 3.9429807904155616e-16 -1.0
  outer loop
    vertex 13.599999999999987 17.30000000000001 6.524499999999999
    vertex 10.401782867334784 17.911999596470732 6.524499999999999
    vertex 11.44999999999999 18.050000000000008 6.5245000000000015
  endloop
endfacet
facet normal -7.40651509871715e-17 3.9429807904155616e-16 -1.0
  outer loop
    vertex 13.599999999999987 17.30000000000001 6.524499999999999
    vertex 11.44999999999999 18.050000000000008 6.5245000000000015
    vertex 12.498217132665209 17.91199959647072 6.52449999999999
  endloop
endfacet
facet normal -7.40651509871715e-17 3.9429807904155616e-16 -1.0
  outer loop
    vertex 13.599999999999987 17.30000000000001 6.524499999999999
    vertex 12.498217132665209 17.91199959647072 6.52449999999999
    vertex 13.47499999999998 17.50740288532698 6.524499999999995
  endloop
endfacet
facet normal -7.40651509871715e-17 3.9429807904155616e-16 -1.0
  outer loop
    vertex 13.599999999999987 17.30000000000001 6.524499999999999
    vertex 13.47499999999998 17.50740288532698 6.524499999999995
    vertex 14.313782463805499 16.863782463805524 6.524499999999999
  endloop
endfacet
facet normal -7.40651509871715e-17 3.9429807904155616e-16 -1.0
  outer loop
    vertex 13.599999999999987 17.30000000000001 6.524499999999999
    vertex 14.313782463805499 16.863782463805524 6.524499999999999
    vertex 13.599999999999987 10.7 6.524499999999999
  endloop
endfacet
facet normal -7.40651509871715e-17 3.9429807904155616e-16 -1.0
  outer loop
    vertex 8.586217536194482 11.136217536194485 6.524500000000007
    vertex 9.299999999999994 10.7 6.524499999999999
    vertex 9.424999999999999 10.492597114673034 6.524499999999985
  endloop
endfacet
facet normal -7.40651509871715e-17 3.9429807904155616e-16 -1.0
  outer loop
    vertex 9.299999999999994 10.7 6.524499999999999
    vertex 8.586217536194482 11.136217536194485 6.524500000000007
    vertex 9.299999999999994 17.30000000000001 6.5245000000000015
  endloop
endfacet
facet normal -7.40651509871715e-17 3.9429807904155616e-16 -1.0
  outer loop
    vertex 9.424999999999999 10.492597114673034 6.524499999999985
    vertex 9.299999999999994 10.7 6.524499999999999
    vertex 13.599999999999987 10.7 6.524499999999999
  endloop
endfacet
facet normal -7.40651509871715e-17 3.9429807904155616e-16 -1.0
  outer loop
    vertex 9.424999999999999 10.492597114673034 6.524499999999985
    vertex 13.599999999999987 10.7 6.524499999999999
    vertex 10.401782867334795 10.088000403529268 6.524499999999985
  endloop
endfacet
facet normal -7.40651509871715e-17 3.9429807904155616e-16 -1.0
  outer loop
    vertex 10.401782867334795 10.088000403529268 6.524499999999985
    vertex 13.599999999999987 10.7 6.524499999999999
    vertex 11.44999999999999 9.950000000000014 6.524499999999999
  endloop
endfacet
facet normal -7.40651509871715e-17 3.9429807904155616e-16 -1.0
  outer loop
    vertex 11.44999999999999 9.950000000000014 6.524499999999999
    vertex 13.599999999999987 10.7 6.524499999999999
    vertex 12.498217132665209 10.088000403529268 6.524499999999985
  endloop
endfacet
facet normal -7.40651509871715e-17 3.9429807904155616e-16 -1.0
  outer loop
    vertex 12.498217132665209 10.088000403529268 6.524499999999985
    vertex 13.599999999999987 10.7 6.524499999999999
    vertex 13.47499999999998 10.492597114673034 6.524499999999985
  endloop
endfacet
facet normal -7.40651509871715e-17 3.9429807904155616e-16 -1.0
  outer loop
    vertex 13.47499999999998 10.492597114673034 6.524499999999985
    vertex 13.599999999999987 10.7 6.524499999999999
    vertex 14.313782463805499 11.136217536194485 6.524500000000007
  endloop
endfacet
facet normal -7.40651509871715e-17 3.9429807904155616e-16 -1.0
  outer loop
    vertex 14.313782463805499 11.136217536194485 6.524500000000007
    vertex 13.599999999999987 10.7 6.524499999999999
    vertex 14.313782463805499 16.863782463805524 6.524499999999999
  endloop
endfacet
facet normal -7.40651509871715e-17 3.9429807904155616e-16 -1.0
  outer loop
    vertex 14.313782463805499 11.136217536194485 6.524500000000007
    vertex 14.313782463805499 16.863782463805524 6.524499999999999
    vertex 14.957402885326953 16.02500000000002 6.524499999999993
  endloop
endfacet
facet normal -7.40651509871715e-17 3.9429807904155616e-16 -1.0
  outer loop
    vertex 14.313782463805499 11.136217536194485 6.524500000000007
    vertex 14.957402885326953 16.02500000000002 6.524499999999993
    vertex 14.957402885326953 11.975000000000003 6.524500000000004
  endloop
endfacet
facet normal -7.40651509871715e-17 3.9429807904155616e-16 -1.0
  outer loop
    vertex 14.957402885326953 11.975000000000003 6.524500000000004
    vertex 14.957402885326953 16.02500000000002 6.524499999999993
    vertex 15.361999596470705 15.048217132665224 6.5245000000000015
  endloop
endfacet
facet normal -7.40651509871715e-17 3.9429807904155616e-16 -1.0
  outer loop
    vertex 14.957402885326953 11.975000000000003 6.524500000000004
    vertex 15.361999596470705 15.048217132665224 6.5245000000000015
    vertex 15.361999596470705 12.951782867334787 6.524500000000007
  endloop
endfacet
facet normal -7.40651509871715e-17 3.9429807904155616e-16 -1.0
  outer loop
    vertex 15.361999596470705 12.951782867334787 6.524500000000007
    vertex 15.361999596470705 15.048217132665224 6.5245000000000015
    vertex 15.499999999999982 14.00000000000001 6.524499999999999
  endloop
endfacet
facet normal 0.3826834323650928 0.9238795325112855 -3.60070428636901e-18
  outer loop
    vertex 9.424999999999999 10.492597114673034 6.524499999999985
    vertex 10.401782867334795 10.088000403529279 4.524500000000007
    vertex 9.424999999999999 10.492597114673023 4.524499999999995
  endloop
endfacet
facet normal 0.3826834323650928 0.9238795325112855 -3.60070428636901e-18
  outer loop
    vertex 10.401782867334795 10.088000403529279 4.524500000000007
    vertex 9.424999999999999 10.492597114673034 6.524499999999985
    vertex 10.401782867334795 10.088000403529268 6.524499999999985
  endloop
endfacet
facet normal 0.6087614290087222 0.7933533402912339 2.473451781597889e-18
  outer loop
    vertex 8.586217536194482 11.136217536194497 4.5245000000000175
    vertex 9.424999999999999 10.492597114673034 6.524499999999985
    vertex 9.424999999999999 10.492597114673023 4.524499999999995
  endloop
endfacet
facet normal 0.6087614290087222 0.7933533402912339 2.473451781597889e-18
  outer loop
    vertex 9.424999999999999 10.492597114673034 6.524499999999985
    vertex 8.586217536194482 11.136217536194497 4.5245000000000175
    vertex 8.586217536194482 11.136217536194485 6.524500000000007
  endloop
endfacet
facet normal 0.7933533402912338 0.6087614290087223 1.8545522277489617e-18
  outer loop
    vertex 8.586217536194482 11.136217536194497 4.5245000000000175
    vertex 7.942597114673028 11.975000000000003 6.524500000000004
    vertex 8.586217536194482 11.136217536194485 6.524500000000007
  endloop
endfacet
facet normal 0.7933533402912338 0.6087614290087223 1.8545522277489617e-18
  outer loop
    vertex 7.942597114673028 11.975000000000003 6.524500000000004
    vertex 8.586217536194482 11.136217536194497 4.5245000000000175
    vertex 7.942597114673028 11.974999999999993 4.524500000000012
  endloop
endfacet
facet normal 0.9238795325112857 0.38268343236509245 1.0779249671069917e-15
  outer loop
    vertex 7.538000403529275 12.9517828673348 4.524499999999989
    vertex 7.942597114673028 11.975000000000003 6.524500000000004
    vertex 7.942597114673028 11.974999999999993 4.524500000000012
  endloop
endfacet
facet normal 0.9238795325112857 0.38268343236509245 1.0779249671069917e-15
  outer loop
    vertex 7.942597114673028 11.975000000000003 6.524500000000004
    vertex 7.538000403529275 12.9517828673348 4.524499999999989
    vertex 7.538000403529275 12.951782867334776 6.524500000000004
  endloop
endfacet
facet normal 0.9914448613738116 0.1305261922200436 3.6749901041993076e-16
  outer loop
    vertex 7.538000403529275 12.9517828673348 4.524499999999989
    vertex 7.400000000000009 14.00000000000001 6.524499999999999
    vertex 7.538000403529275 12.951782867334776 6.524500000000004
  endloop
endfacet
facet normal 0.9914448613738116 0.1305261922200436 3.6749901041993076e-16
  outer loop
    vertex 7.400000000000009 14.00000000000001 6.524499999999999
    vertex 7.538000403529275 12.9517828673348 4.524499999999989
    vertex 7.400000000000009 14.0 4.5245000000000175
  endloop
endfacet
facet normal 0.9914448613738116 -0.13052619222004366 3.6914376965869206e-16
  outer loop
    vertex 7.538000403529275 15.048217132665224 4.524500000000007
    vertex 7.400000000000009 14.00000000000001 6.524499999999999
    vertex 7.400000000000009 14.0 4.5245000000000175
  endloop
endfacet
facet normal 0.9914448613738116 -0.13052619222004366 3.6914376965869206e-16
  outer loop
    vertex 7.400000000000009 14.00000000000001 6.524499999999999
    vertex 7.538000403529275 15.048217132665224 4.524500000000007
    vertex 7.538000403529275 15.048217132665224 6.524500000000004
  endloop
endfacet
facet normal 0.9238795325112843 -0.3826834323650961 1.0805068987295814e-15
  outer loop
    vertex 7.942597114673028 16.024999999999995 4.524500000000007
    vertex 7.538000403529275 15.048217132665224 6.524500000000004
    vertex 7.538000403529275 15.048217132665224 4.524500000000007
  endloop
endfacet
facet normal 0.9238795325112843 -0.3826834323650961 1.0805068987295814e-15
  outer loop
    vertex 7.538000403529275 15.048217132665224 6.524500000000004
    vertex 7.942597114673028 16.024999999999995 4.524500000000007
    vertex 7.942597114673028 16.025000000000006 6.524499999999993
  endloop
endfacet
facet normal 0.793353340291236 -0.6087614290087198 5.149934773483478e-15
  outer loop
    vertex 8.586217536194482 16.863782463805503 4.524499999999989
    vertex 7.942597114673028 16.025000000000006 6.524499999999993
    vertex 7.942597114673028 16.024999999999995 4.524500000000007
  endloop
endfacet
facet normal 0.793353340291236 -0.6087614290087198 5.149934773483478e-15
  outer loop
    vertex 7.942597114673028 16.025000000000006 6.524499999999993
    vertex 8.586217536194482 16.863782463805503 4.524499999999989
    vertex 8.586217536194482 16.863782463805524 6.524499999999999
  endloop
endfacet
facet normal 0.6087614290087205 -0.7933533402912353 6.709047485040002e-15
  outer loop
    vertex 9.424999999999999 17.507402885326968 4.524500000000001
    vertex 8.586217536194482 16.863782463805524 6.524499999999999
    vertex 8.586217536194482 16.863782463805503 4.524499999999989
  endloop
endfacet
facet normal 0.6087614290087205 -0.7933533402912353 6.709047485040002e-15
  outer loop
    vertex 8.586217536194482 16.863782463805524 6.524499999999999
    vertex 9.424999999999999 17.507402885326968 4.524500000000001
    vertex 9.424999999999999 17.50740288532698 6.524499999999999
  endloop
endfacet
facet normal 0.3826834323650942 -0.9238795325112851 5.2139013045517285e-15
  outer loop
    vertex 10.401782867334784 17.911999596470732 6.524499999999999
    vertex 9.424999999999999 17.507402885326968 4.524500000000001
    vertex 10.401782867334784 17.91199959647072 4.524499999999989
  endloop
endfacet
facet normal 0.3826834323650942 -0.9238795325112851 5.2139013045517285e-15
  outer loop
    vertex 9.424999999999999 17.507402885326968 4.524500000000001
    vertex 10.401782867334784 17.911999596470732 6.524499999999999
    vertex 9.424999999999999 17.50740288532698 6.524499999999999
  endloop
endfacet
facet normal -0.38268343236508895 -0.9238795325112871 -1.1169303381244408e-17
  outer loop
    vertex 13.47499999999998 17.50740288532698 4.524500000000001
    vertex 12.498217132665209 17.91199959647072 6.52449999999999
    vertex 12.498217132665209 17.91199959647072 4.524499999999995
  endloop
endfacet
facet normal -0.38268343236508895 -0.9238795325112871 -1.1169303381244408e-17
  outer loop
    vertex 12.498217132665209 17.91199959647072 6.52449999999999
    vertex 13.47499999999998 17.50740288532698 4.524500000000001
    vertex 13.47499999999998 17.50740288532698 6.524499999999995
  endloop
endfacet
facet normal -0.6087614290087239 -0.7933533402912327 4.476040752021864e-15
  outer loop
    vertex 14.313782463805499 16.863782463805524 6.524499999999999
    vertex 13.47499999999998 17.50740288532698 4.524500000000001
    vertex 14.313782463805499 16.863782463805503 4.524499999999989
  endloop
endfacet
facet normal -0.6087614290087239 -0.7933533402912327 4.476040752021864e-15
  outer loop
    vertex 13.47499999999998 17.50740288532698 4.524500000000001
    vertex 14.313782463805499 16.863782463805524 6.524499999999999
    vertex 13.47499999999998 17.50740288532698 6.524499999999995
  endloop
endfacet
facet normal -0.793353340291232 -0.6087614290087249 5.1605802435450556e-15
  outer loop
    vertex 14.957402885326953 16.02500000000002 6.524499999999993
    vertex 14.313782463805499 16.863782463805503 4.524499999999989
    vertex 14.957402885326953 16.025000000000006 4.524500000000007
  endloop
endfacet
facet normal -0.793353340291232 -0.6087614290087249 5.1605802435450556e-15
  outer loop
    vertex 14.313782463805499 16.863782463805503 4.524499999999989
    vertex 14.957402885326953 16.02500000000002 6.524499999999993
    vertex 14.313782463805499 16.863782463805524 6.524499999999999
  endloop
endfacet
facet normal -0.9238795325112857 -0.38268343236509234 1.0697315848321338e-15
  outer loop
    vertex 14.957402885326953 16.02500000000002 6.524499999999993
    vertex 15.361999596470705 15.048217132665224 4.524499999999989
    vertex 15.361999596470705 15.048217132665224 6.5245000000000015
  endloop
endfacet
facet normal -0.9238795325112857 -0.38268343236509234 1.0697315848321338e-15
  outer loop
    vertex 15.361999596470705 15.048217132665224 4.524499999999989
    vertex 14.957402885326953 16.02500000000002 6.524499999999993
    vertex 14.957402885326953 16.025000000000006 4.524500000000007
  endloop
endfacet
facet normal -0.9914448613738103 -0.1305261922200534 7.398053526743945e-16
  outer loop
    vertex 15.499999999999982 14.00000000000001 6.524499999999999
    vertex 15.361999596470705 15.048217132665224 4.524499999999989
    vertex 15.499999999999982 13.999999999999988 4.524500000000012
  endloop
endfacet
facet normal -0.9914448613738103 -0.1305261922200534 7.398053526743945e-16
  outer loop
    vertex 15.361999596470705 15.048217132665224 4.524499999999989
    vertex 15.499999999999982 14.00000000000001 6.524499999999999
    vertex 15.361999596470705 15.048217132665224 6.5245000000000015
  endloop
endfacet
facet normal -0.99144486137381 0.1305261922200555 -3.665937217983664e-16
  outer loop
    vertex 15.499999999999982 14.00000000000001 6.524499999999999
    vertex 15.361999596470705 12.9517828673348 4.524499999999989
    vertex 15.361999596470705 12.951782867334787 6.524500000000007
  endloop
endfacet
facet normal -0.99144486137381 0.1305261922200555 -3.665937217983664e-16
  outer loop
    vertex 15.361999596470705 12.9517828673348 4.524499999999989
    vertex 15.499999999999982 14.00000000000001 6.524499999999999
    vertex 15.499999999999982 13.999999999999988 4.524500000000012
  endloop
endfacet
facet normal -0.9238795325112857 0.38268343236509245 1.0708389553823446e-15
  outer loop
    vertex 15.361999596470705 12.951782867334787 6.524500000000007
    vertex 14.957402885326953 11.975000000000003 4.524500000000007
    vertex 14.957402885326953 11.975000000000003 6.524500000000004
  endloop
endfacet
facet normal -0.9238795325112857 0.38268343236509245 1.0708389553823446e-15
  outer loop
    vertex 14.957402885326953 11.975000000000003 4.524500000000007
    vertex 15.361999596470705 12.951782867334787 6.524500000000007
    vertex 15.361999596470705 12.9517828673348 4.524499999999989
  endloop
endfacet
facet normal -0.793353340291236 0.6087614290087198 1.7133024958326096e-15
  outer loop
    vertex 14.957402885326953 11.975000000000003 6.524500000000004
    vertex 14.313782463805499 11.136217536194497 4.524500000000001
    vertex 14.313782463805499 11.136217536194485 6.524500000000007
  endloop
endfacet
facet normal -0.793353340291236 0.6087614290087198 1.7133024958326096e-15
  outer loop
    vertex 14.313782463805499 11.136217536194497 4.524500000000001
    vertex 14.957402885326953 11.975000000000003 6.524500000000004
    vertex 14.957402885326953 11.975000000000003 4.524500000000007
  endloop
endfacet
facet normal -0.6087614290087223 0.7933533402912339 -4.463629302380995e-18
  outer loop
    vertex 13.47499999999998 10.492597114673034 6.524499999999985
    vertex 14.313782463805499 11.136217536194497 4.524500000000001
    vertex 13.47499999999998 10.492597114673023 4.524499999999995
  endloop
endfacet
facet normal -0.6087614290087223 0.7933533402912339 -4.463629302380995e-18
  outer loop
    vertex 14.313782463805499 11.136217536194497 4.524500000000001
    vertex 13.47499999999998 10.492597114673034 6.524499999999985
    vertex 14.313782463805499 11.136217536194485 6.524500000000007
  endloop
endfacet
facet normal -0.3826834323650958 0.9238795325112845 2.600003936869114e-15
  outer loop
    vertex 12.498217132665209 10.08800040352929 4.524500000000001
    vertex 13.47499999999998 10.492597114673034 6.524499999999985
    vertex 13.47499999999998 10.492597114673023 4.524499999999995
  endloop
endfacet
facet normal -0.3826834323650958 0.9238795325112845 2.600003936869114e-15
  outer loop
    vertex 13.47499999999998 10.492597114673034 6.524499999999985
    vertex 12.498217132665209 10.08800040352929 4.524500000000001
    vertex 12.498217132665209 10.088000403529268 6.524499999999985
  endloop
endfacet
facet normal 0.13052619222006073 -0.9914448613738094 2.7959381574560287e-15
  outer loop
    vertex 11.44999999999999 18.050000000000008 4.524500000000007
    vertex 10.401782867334784 17.911999596470732 6.524499999999999
    vertex 10.401782867334784 17.91199959647072 4.524499999999989
  endloop
endfacet
facet normal 0.13052619222006073 -0.9914448613738094 2.7959381574560287e-15
  outer loop
    vertex 10.401782867334784 17.911999596470732 6.524499999999999
    vertex 11.44999999999999 18.050000000000008 4.524500000000007
    vertex 11.44999999999999 18.050000000000008 6.5245000000000015
  endloop
endfacet
facet normal -0.1305261922200646 -0.9914448613738088 2.2951442581395953e-18
  outer loop
    vertex 12.498217132665209 17.91199959647072 6.52449999999999
    vertex 11.44999999999999 18.050000000000008 4.524500000000007
    vertex 12.498217132665209 17.91199959647072 4.524499999999995
  endloop
endfacet
facet normal -0.1305261922200646 -0.9914448613738088 2.2951442581395953e-18
  outer loop
    vertex 11.44999999999999 18.050000000000008 4.524500000000007
    vertex 12.498217132665209 17.91199959647072 6.52449999999999
    vertex 11.44999999999999 18.050000000000008 6.5245000000000015
  endloop
endfacet
facet normal -1.942065699529276e-15 -1.8823329103698908e-15 -1.0
  outer loop
    vertex 7.400000000000009 18.050000000000008 4.524500000000012
    vertex 7.538000403529275 15.048217132665224 4.524500000000007
    vertex 7.400000000000009 14.0 4.5245000000000175
  endloop
endfacet
facet normal -1.942065699529276e-15 -1.8823329103698908e-15 -1.0
  outer loop
    vertex 7.538000403529275 15.048217132665224 4.524500000000007
    vertex 7.400000000000009 18.050000000000008 4.524500000000012
    vertex 7.942597114673028 16.024999999999995 4.524500000000007
  endloop
endfacet
facet normal -1.942065699529276e-15 -1.8823329103698908e-15 -1.0
  outer loop
    vertex 7.942597114673028 16.024999999999995 4.524500000000007
    vertex 7.400000000000009 18.050000000000008 4.524500000000012
    vertex 8.586217536194482 16.863782463805503 4.524499999999989
  endloop
endfacet
facet normal -1.942065699529276e-15 -1.8823329103698908e-15 -1.0
  outer loop
    vertex 8.586217536194482 16.863782463805503 4.524499999999989
    vertex 7.400000000000009 18.050000000000008 4.524500000000012
    vertex 9.424999999999999 17.507402885326968 4.524500000000001
  endloop
endfacet
facet normal -1.942065699529276e-15 -1.8823329103698908e-15 -1.0
  outer loop
    vertex 9.424999999999999 17.507402885326968 4.524500000000001
    vertex 7.400000000000009 18.050000000000008 4.524500000000012
    vertex 10.401782867334784 17.91199959647072 4.524499999999989
  endloop
endfacet
facet normal -1.942065699529276e-15 -1.8823329103698908e-15 -1.0
  outer loop
    vertex 10.401782867334784 17.91199959647072 4.524499999999989
    vertex 7.400000000000009 18.050000000000008 4.524500000000012
    vertex 11.44999999999999 18.050000000000008 4.524500000000007
  endloop
endfacet
facet normal 0.15835378716309145 0.9873824376051593 9.087133745114094e-16
  outer loop
    vertex 22.499999999999982 19.500000000000007 15.274499999999986
    vertex 49.000000000000014 15.250000000000018 1.5745000000000022
    vertex 22.499999999999982 19.500000000000018 1.5745000000000122
  endloop
endfacet
facet normal 0.15835378716309145 -0.9873824376051593 1.6551565035743478e-15
  outer loop
    vertex 22.499999999999982 8.500000000000016 15.274499999999986
    vertex 22.499999999999982 8.499999999999993 1.5744999999999896
    vertex 49.000000000000014 12.749999999999993 1.5744999999999902
  endloop
endfacet
facet normal -2.506636873375908e-16 1.0 1.2350218171742637e-15
  outer loop
    vertex -6.807637997988379e-17 19.499999999999996 15.274499999999996
    vertex 22.499999999999982 19.500000000000018 1.5745000000000122
    vertex -6.807637997988379e-17 19.500000000000018 1.5745000000000122
  endloop
endfacet
facet normal -2.506636873375908e-16 1.0 1.2350218171742637e-15
  outer loop
    vertex 22.499999999999982 19.500000000000018 1.5745000000000122
    vertex -6.807637997988379e-17 19.499999999999996 15.274499999999996
    vertex 22.499999999999982 19.500000000000007 15.274499999999986
  endloop
endfacet
facet normal 1.9221533312663033e-16 -1.2715094671495069e-15 1.0
  outer loop
    vertex -6.807637997988379e-17 19.500000000000018 1.5745000000000122
    vertex 22.99999999999998 27.999999999999993 1.5745000000000242
    vertex -1.4518483848705286e-16 27.999999999999993 1.5745000000000242
  endloop
endfacet
facet normal 1.9221533312663033e-16 -1.2715094671495069e-15 1.0
  outer loop
    vertex 22.99999999999998 27.999999999999993 1.5745000000000242
    vertex -6.807637997988379e-17 19.500000000000018 1.5745000000000122
    vertex 22.499999999999982 19.500000000000018 1.5745000000000122
  endloop
endfacet
facet normal 1.9221533312663033e-16 -1.2715094671495069e-15 1.0
  outer loop
    vertex 22.99999999999998 27.999999999999993 1.5745000000000242
    vertex 22.499999999999982 19.500000000000018 1.5745000000000122
    vertex 49.000000000000014 15.250000000000018 1.5745000000000022
  endloop
endfacet
facet normal 1.9221533312663033e-16 -1.2715094671495069e-15 1.0
  outer loop
    vertex 22.99999999999998 27.999999999999993 1.5745000000000242
    vertex 49.000000000000014 15.250000000000018 1.5745000000000022
    vertex 49.000000000000014 21.250000000000025 1.5745000000000016
  endloop
endfacet
facet normal 0.4592405236390419 -2.785475987781755e-16 0.8883119617835499
  outer loop
    vertex 49.000000000000014 12.749999999999993 1.5744999999999902
    vertex 22.499999999999982 19.500000000000007 15.274499999999986
    vertex 22.499999999999982 8.500000000000016 15.274499999999986
  endloop
endfacet
facet normal 0.4592405236390419 -2.785475987781755e-16 0.8883119617835499
  outer loop
    vertex 22.499999999999982 19.500000000000007 15.274499999999986
    vertex 49.000000000000014 12.749999999999993 1.5744999999999902
    vertex 49.000000000000014 15.250000000000018 1.5745000000000022
  endloop
endfacet
facet normal -4.089639989830995e-16 4.804519722815512e-16 1.0
  outer loop
    vertex -1.4518483848705286e-16 1.1984857550828564e-14 1.5744999999999847
    vertex 22.499999999999982 8.499999999999993 1.5744999999999896
    vertex -2.0026230884931648e-16 8.499999999999993 1.5744999999999783
  endloop
endfacet
facet normal -4.089639989830995e-16 4.804519722815512e-16 1.0
  outer loop
    vertex 22.499999999999982 8.499999999999993 1.5744999999999896
    vertex -1.4518483848705286e-16 1.1984857550828564e-14 1.5744999999999847
    vertex 23.000000000000004 1.1984857550828564e-14 1.5744999999999847
  endloop
endfacet
facet normal -4.089639989830995e-16 4.804519722815512e-16 1.0
  outer loop
    vertex 22.499999999999982 8.499999999999993 1.5744999999999896
    vertex 23.000000000000004 1.1984857550828564e-14 1.5744999999999847
    vertex 49.000000000000014 12.749999999999993 1.5744999999999902
  endloop
endfacet
facet normal -4.089639989830995e-16 4.804519722815512e-16 1.0
  outer loop
    vertex 49.000000000000014 12.749999999999993 1.5744999999999902
    vertex 23.000000000000004 1.1984857550828564e-14 1.5744999999999847
    vertex 49.000000000000014 6.7499999999999964 1.5745000000000073
  endloop
endfacet
facet normal -1.071225163056307e-15 1.3421060773296017e-15 -1.0
  outer loop
    vertex 12.498217132665209 10.08800040352929 4.524500000000001
    vertex 15.499999999999982 9.950000000000006 4.524500000000002
    vertex 11.44999999999999 9.950000000000024 4.524500000000007
  endloop
endfacet
facet normal -1.071225163056307e-15 1.3421060773296017e-15 -1.0
  outer loop
    vertex 15.499999999999982 9.950000000000006 4.524500000000002
    vertex 12.498217132665209 10.08800040352929 4.524500000000001
    vertex 13.47499999999998 10.492597114673023 4.524499999999995
  endloop
endfacet
facet normal -1.071225163056307e-15 1.3421060773296017e-15 -1.0
  outer loop
    vertex 15.499999999999982 9.950000000000006 4.524500000000002
    vertex 13.47499999999998 10.492597114673023 4.524499999999995
    vertex 14.313782463805499 11.136217536194497 4.524500000000001
  endloop
endfacet
facet normal -1.071225163056307e-15 1.3421060773296017e-15 -1.0
  outer loop
    vertex 15.499999999999982 9.950000000000006 4.524500000000002
    vertex 14.313782463805499 11.136217536194497 4.524500000000001
    vertex 14.957402885326953 11.975000000000003 4.524500000000007
  endloop
endfacet
facet normal -1.071225163056307e-15 1.3421060773296017e-15 -1.0
  outer loop
    vertex 15.499999999999982 9.950000000000006 4.524500000000002
    vertex 14.957402885326953 11.975000000000003 4.524500000000007
    vertex 15.361999596470705 12.9517828673348 4.524499999999989
  endloop
endfacet
facet normal -1.071225163056307e-15 1.3421060773296017e-15 -1.0
  outer loop
    vertex 15.499999999999982 9.950000000000006 4.524500000000002
    vertex 15.361999596470705 12.9517828673348 4.524499999999989
    vertex 15.499999999999982 13.999999999999988 4.524500000000012
  endloop
endfacet
facet normal 2.5066368733759074e-16 -1.0 1.2350218171742612e-15
  outer loop
    vertex 22.499999999999982 8.499999999999993 1.5744999999999896
    vertex -1.1480128239040907e-14 8.500000000000004 15.274499999999986
    vertex -2.0026230884931648e-16 8.499999999999993 1.5744999999999783
  endloop
endfacet
facet normal 2.5066368733759074e-16 -1.0 1.2350218171742612e-15
  outer loop
    vertex -1.1480128239040907e-14 8.500000000000004 15.274499999999986
    vertex 22.499999999999982 8.499999999999993 1.5744999999999896
    vertex 22.499999999999982 8.500000000000016 15.274499999999986
  endloop
endfacet
facet normal 6.818849395797576e-16 1.2031299790542962e-16 -1.0
  outer loop
    vertex 15.499999999999982 18.050000000000008 4.5245000000000095
    vertex 12.498217132665209 17.91199959647072 4.524499999999995
    vertex 11.44999999999999 18.050000000000008 4.524500000000007
  endloop
endfacet
facet normal 6.818849395797576e-16 1.2031299790542962e-16 -1.0
  outer loop
    vertex 12.498217132665209 17.91199959647072 4.524499999999995
    vertex 15.499999999999982 18.050000000000008 4.5245000000000095
    vertex 13.47499999999998 17.50740288532698 4.524500000000001
  endloop
endfacet
facet normal 6.818849395797576e-16 1.2031299790542962e-16 -1.0
  outer loop
    vertex 13.47499999999998 17.50740288532698 4.524500000000001
    vertex 15.499999999999982 18.050000000000008 4.5245000000000095
    vertex 14.313782463805499 16.863782463805503 4.524499999999989
  endloop
endfacet
facet normal 6.818849395797576e-16 1.2031299790542962e-16 -1.0
  outer loop
    vertex 14.313782463805499 16.863782463805503 4.524499999999989
    vertex 15.499999999999982 18.050000000000008 4.5245000000000095
    vertex 14.957402885326953 16.025000000000006 4.524500000000007
  endloop
endfacet
facet normal 6.818849395797576e-16 1.2031299790542962e-16 -1.0
  outer loop
    vertex 14.957402885326953 16.025000000000006 4.524500000000007
    vertex 15.499999999999982 18.050000000000008 4.5245000000000095
    vertex 15.361999596470705 15.048217132665224 4.524499999999989
  endloop
endfacet
facet normal 6.818849395797576e-16 1.2031299790542962e-16 -1.0
  outer loop
    vertex 15.361999596470705 15.048217132665224 4.524499999999989
    vertex 15.499999999999982 18.050000000000008 4.5245000000000095
    vertex 15.499999999999982 13.999999999999988 4.524500000000012
  endloop
endfacet
facet normal -3.3057352948210233e-16 5.018793264655182e-16 -1.0
  outer loop
    vertex 7.538000403529275 12.9517828673348 4.524499999999989
    vertex 7.400000000000009 9.95 4.524500000000008
    vertex 7.400000000000009 14.0 4.5245000000000175
  endloop
endfacet
facet normal -3.3057352948210233e-16 5.018793264655182e-16 -1.0
  outer loop
    vertex 7.400000000000009 9.95 4.524500000000008
    vertex 7.538000403529275 12.9517828673348 4.524499999999989
    vertex 7.942597114673028 11.974999999999993 4.524500000000012
  endloop
endfacet
facet normal -3.3057352948210233e-16 5.018793264655182e-16 -1.0
  outer loop
    vertex 7.400000000000009 9.95 4.524500000000008
    vertex 7.942597114673028 11.974999999999993 4.524500000000012
    vertex 8.586217536194482 11.136217536194497 4.5245000000000175
  endloop
endfacet
facet normal -3.3057352948210233e-16 5.018793264655182e-16 -1.0
  outer loop
    vertex 7.400000000000009 9.95 4.524500000000008
    vertex 8.586217536194482 11.136217536194497 4.5245000000000175
    vertex 9.424999999999999 10.492597114673023 4.524499999999995
  endloop
endfacet
facet normal -3.3057352948210233e-16 5.018793264655182e-16 -1.0
  outer loop
    vertex 7.400000000000009 9.95 4.524500000000008
    vertex 9.424999999999999 10.492597114673023 4.524499999999995
    vertex 10.401782867334795 10.088000403529279 4.524500000000007
  endloop
endfacet
facet normal -3.3057352948210233e-16 5.018793264655182e-16 -1.0
  outer loop
    vertex 7.400000000000009 9.95 4.524500000000008
    vertex 10.401782867334795 10.088000403529279 4.524500000000007
    vertex 11.44999999999999 9.950000000000024 4.524500000000007
  endloop
endfacet
facet normal -1.7595464741355443e-16 5.328321316665784e-16 -1.0
  outer loop
    vertex -1.983415545167437e-18 27.999999999999993 1.6919798895287383e-14
    vertex 7.400000000000009 18.050000000000022 -2.114974861910923e-15
    vertex -1.983415545167437e-18 0.0 0.0
  endloop
endfacet
facet normal -1.7595464741355443e-16 5.328321316665784e-16 -1.0
  outer loop
    vertex 7.400000000000009 18.050000000000022 -2.114974861910923e-15
    vertex -1.983415545167437e-18 27.999999999999993 1.6919798895287383e-14
    vertex 22.99999999999998 27.999999999999993 1.6919798895287383e-14
  endloop
endfacet
facet normal -1.7595464741355443e-16 5.328321316665784e-16 -1.0
  outer loop
    vertex 7.400000000000009 18.050000000000022 -2.114974861910923e-15
    vertex 22.99999999999998 27.999999999999993 1.6919798895287383e-14
    vertex 15.499999999999982 18.050000000000015 -2.8199664825478975e-15
  endloop
endfacet
facet normal -1.7595464741355443e-16 5.328321316665784e-16 -1.0
  outer loop
    vertex 15.499999999999982 18.050000000000015 -2.8199664825478975e-15
    vertex 22.99999999999998 27.999999999999993 1.6919798895287383e-14
    vertex 15.499999999999982 9.949999999999992 -4.053701818662602e-15
  endloop
endfacet
facet normal -1.7595464741355443e-16 5.328321316665784e-16 -1.0
  outer loop
    vertex -1.983415545167437e-18 0.0 0.0
    vertex 7.400000000000009 9.95 -3.1724622928663847e-15
    vertex 23.000000000000004 0.0 0.0
  endloop
endfacet
facet normal -1.7595464741355443e-16 5.328321316665784e-16 -1.0
  outer loop
    vertex 7.400000000000009 9.95 -3.1724622928663847e-15
    vertex -1.983415545167437e-18 0.0 0.0
    vertex 7.400000000000009 18.050000000000022 -2.114974861910923e-15
  endloop
endfacet
facet normal -1.7595464741355443e-16 5.328321316665784e-16 -1.0
  outer loop
    vertex 23.000000000000004 0.0 0.0
    vertex 7.400000000000009 9.95 -3.1724622928663847e-15
    vertex 15.499999999999982 9.949999999999992 -4.053701818662602e-15
  endloop
endfacet
facet normal -1.7595464741355443e-16 5.328321316665784e-16 -1.0
  outer loop
    vertex 23.000000000000004 0.0 0.0
    vertex 15.499999999999982 9.949999999999992 -4.053701818662602e-15
    vertex 22.99999999999998 27.999999999999993 1.6919798895287383e-14
  endloop
endfacet
facet normal -1.7595464741355443e-16 5.328321316665784e-16 -1.0
  outer loop
    vertex 23.000000000000004 0.0 0.0
    vertex 22.99999999999998 27.999999999999993 1.6919798895287383e-14
    vertex 49.000000000000014 21.250000000000014 0.0
  endloop
endfacet
facet normal -1.7595464741355443e-16 5.328321316665784e-16 -1.0
  outer loop
    vertex 23.000000000000004 0.0 0.0
    vertex 49.000000000000014 21.250000000000014 0.0
    vertex 49.000000000000014 6.7499999999999964 0.0
  endloop
endfacet
facet normal 1.0 -0.0 -0.0
  outer loop
    vertex 7.400000000000009 18.050000000000022 -2.114974861910923e-15
    vertex 7.400000000000009 9.95 4.524500000000008
    vertex 7.400000000000009 9.95 -3.1724622928663847e-15
  endloop
endfacet
facet normal 1.0 -0.0 -0.0
  outer loop
    vertex 7.400000000000009 9.95 4.524500000000008
    vertex 7.400000000000009 18.050000000000022 -2.114974861910923e-15
    vertex 7.400000000000009 14.0 4.5245000000000175
  endloop
endfacet
facet normal 1.0 -0.0 -0.0
  outer loop
    vertex 7.400000000000009 14.0 4.5245000000000175
    vertex 7.400000000000009 18.050000000000022 -2.114974861910923e-15
    vertex 7.400000000000009 18.050000000000008 4.524500000000012
  endloop
endfacet
facet normal -3.481440101910999e-16 -1.0 -1.869797645627953e-15
  outer loop
    vertex 15.499999999999982 18.050000000000008 4.5245000000000095
    vertex 7.400000000000009 18.050000000000022 -2.114974861910923e-15
    vertex 15.499999999999982 18.050000000000015 -2.8199664825478975e-15
  endloop
endfacet
facet normal -3.481440101910999e-16 -1.0 -1.869797645627953e-15
  outer loop
    vertex 7.400000000000009 18.050000000000022 -2.114974861910923e-15
    vertex 15.499999999999982 18.050000000000008 4.5245000000000095
    vertex 11.44999999999999 18.050000000000008 4.524500000000007
  endloop
endfacet
facet normal -3.481440101910999e-16 -1.0 -1.869797645627953e-15
  outer loop
    vertex 7.400000000000009 18.050000000000008 4.524500000000012
    vertex 7.400000000000009 18.050000000000022 -2.114974861910923e-15
    vertex 11.44999999999999 18.050000000000008 4.524500000000007
  endloop
endfacet
facet normal -1.7407200509554976e-16 1.0 -3.116329409379923e-15
  outer loop
    vertex 7.400000000000009 9.95 -3.1724622928663847e-15
    vertex 15.499999999999982 9.950000000000006 4.524500000000002
    vertex 15.499999999999982 9.949999999999992 -4.053701818662602e-15
  endloop
endfacet
facet normal -1.7407200509554976e-16 1.0 -3.116329409379923e-15
  outer loop
    vertex 15.499999999999982 9.950000000000006 4.524500000000002
    vertex 7.400000000000009 9.95 -3.1724622928663847e-15
    vertex 7.400000000000009 9.95 4.524500000000008
  endloop
endfacet
facet normal -1.7407200509554976e-16 1.0 -3.116329409379923e-15
  outer loop
    vertex 15.499999999999982 9.950000000000006 4.524500000000002
    vertex 7.400000000000009 9.95 4.524500000000008
    vertex 11.44999999999999 9.950000000000024 4.524500000000007
  endloop
endfacet
facet normal -1.0 0.0 0.0
  outer loop
    vertex 15.499999999999982 9.950000000000006 4.524500000000002
    vertex 15.499999999999982 18.050000000000015 -2.8199664825478975e-15
    vertex 15.499999999999982 9.949999999999992 -4.053701818662602e-15
  endloop
endfacet
facet normal -1.0 0.0 0.0
  outer loop
    vertex 15.499999999999982 18.050000000000015 -2.8199664825478975e-15
    vertex 15.499999999999982 9.950000000000006 4.524500000000002
    vertex 15.499999999999982 13.999999999999988 4.524500000000012
  endloop
endfacet
facet normal -1.0 0.0 0.0
  outer loop
    vertex 15.499999999999982 18.050000000000015 -2.8199664825478975e-15
    vertex 15.499999999999982 13.999999999999988 4.524500000000012
    vertex 15.499999999999982 18.050000000000008 4.5245000000000095
  endloop
endfacet
facet normal -0.13052619222003836 0.9914448613738123 8.387279424974647e-15
  outer loop
    vertex 11.44999999999999 9.950000000000024 4.524500000000007
    vertex 12.498217132665209 10.088000403529268 6.524499999999985
    vertex 12.498217132665209 10.08800040352929 4.524500000000001
  endloop
endfacet
facet normal -0.13052619222003836 0.9914448613738123 8.387279424974647e-15
  outer loop
    vertex 12.498217132665209 10.088000403529268 6.524499999999985
    vertex 11.44999999999999 9.950000000000024 4.524500000000007
    vertex 11.44999999999999 9.950000000000014 6.524499999999999
  endloop
endfacet
facet normal 0.1305261922200359 0.9914448613738125 5.59223393604547e-15
  outer loop
    vertex 10.401782867334795 10.088000403529268 6.524499999999985
    vertex 11.44999999999999 9.950000000000024 4.524500000000007
    vertex 10.401782867334795 10.088000403529279 4.524500000000007
  endloop
endfacet
facet normal 0.1305261922200359 0.9914448613738125 5.59223393604547e-15
  outer loop
    vertex 11.44999999999999 9.950000000000024 4.524500000000007
    vertex 10.401782867334795 10.088000403529268 6.524499999999985
    vertex 11.44999999999999 9.950000000000014 6.524499999999999
  endloop
endfacet
endsolid Case Runner
